<svg width="24" height="24" viewBox="0 0 24 24" fill="none" xmlns="http://www.w3.org/2000/svg"><g clipPath="url(#a)"><g clipPath="url(#b)"><path d="M11.56 5.498 8.432 8.625H4.844A.844.844 0 0 0 4 9.469v5.062c0 .466.378.844.844.844h3.588l3.128 3.127c.528.529 1.44.157 1.44-.596V6.094c0-.754-.913-1.124-1.44-.596ZM20.875 12a6.491 6.491 0 0 0-3.015-5.493.84.84 0 0 0-1.165.262.854.854 0 0 0 .26 1.173A4.798 4.798 0 0 1 19.189 12a4.797 4.797 0 0 1-2.232 4.058.854.854 0 0 0-.26 1.172.842.842 0 0 0 1.164.263A6.491 6.491 0 0 0 20.875 12Zm-4.984-2.702a.844.844 0 0 0-.814 1.479A1.4 1.4 0 0 1 15.813 12c0 .505-.283.975-.736 1.224a.845.845 0 0 0 .814 1.478A3.092 3.092 0 0 0 17.501 12a3.09 3.09 0 0 0-1.61-2.702Z" fill="#fff"/></g></g><defs><clipPath id="a"><path fill="#fff" d="M0 0h24v24H0z"/></clipPath><clipPath id="b"><path fill="#fff" d="M4 3h16.875v18H4z"/></clipPath></defs></svg>