<svg width="24" height="24" viewBox="0 0 24 24" fill="none" xmlns="http://www.w3.org/2000/svg"><path d="M12.466 17.995a1 1 0 0 0-.932 0l-3.912 2.057a1 1 0 0 1-1.451-1.054l.747-4.357a1 1 0 0 0-.288-.886L3.461 10.67a1 1 0 0 1 .554-1.706l4.372-.634a1 1 0 0 0 .753-.547l1.956-3.964a1 1 0 0 1 1.794 0l1.956 3.964a1 1 0 0 0 .754.547l4.371.634a1 1 0 0 1 .554 1.706l-3.169 3.085a1 1 0 0 0-.288.886l.747 4.354a1 1 0 0 1-1.452 1.054l-3.897-2.054Z" fill="url(#a)"/><defs><linearGradient id="a" x1="10.466" y1="11.5" x2="21.782" y2="11.5" gradientUnits="userSpaceOnUse"><stop stop-color="#2499FF"/><stop offset="1" stop-color="#7124FF"/></linearGradient></defs></svg>