<svg width="1340" height="724" viewBox="0 0 1340 724" fill="none" xmlns="http://www.w3.org/2000/svg"><g opacity=".1" fill-rule="evenodd" clip-rule="evenodd"><path d="M42.743 772.193a.351.351 0 0 1-.352-.351V.411a.352.352 0 1 1 .704 0v771.431a.351.351 0 0 1-.352.351Z" fill="url(#a)"/><path d="M94.118 772.193a.351.351 0 0 1-.352-.351V.411a.352.352 0 1 1 .703 0v771.431a.351.351 0 0 1-.351.351Z" fill="url(#b)"/><path d="M145.492 772.193a.351.351 0 0 1-.352-.351V.411a.352.352 0 1 1 .704 0v771.431a.352.352 0 0 1-.352.351Z" fill="url(#c)"/><path d="M196.866 772.193a.352.352 0 0 1-.352-.351V.411a.352.352 0 0 1 .704 0v771.431a.352.352 0 0 1-.352.351Z" fill="url(#d)"/><path d="M248.24 772.193a.352.352 0 0 1-.352-.351V.411a.352.352 0 0 1 .704 0v771.431a.351.351 0 0 1-.352.351Z" fill="url(#e)"/><path d="M299.614 772.193a.35.35 0 0 1-.351-.351V.411a.351.351 0 1 1 .703 0v771.431a.351.351 0 0 1-.352.351Z" fill="url(#f)"/><path d="M350.989 772.193a.351.351 0 0 1-.352-.351V.411a.352.352 0 1 1 .704 0v771.431a.352.352 0 0 1-.352.351Z" fill="url(#g)"/><path d="M402.363 772.193a.352.352 0 0 1-.352-.351V.411a.352.352 0 0 1 .704 0v771.431a.352.352 0 0 1-.352.351Z" fill="url(#h)"/><path d="M453.737 772.193a.352.352 0 0 1-.352-.351V.411a.352.352 0 0 1 .704 0v771.431a.351.351 0 0 1-.352.351Z" fill="url(#i)"/><path d="M505.111 772.193a.352.352 0 0 1-.352-.351V.411a.352.352 0 0 1 .704 0v771.431a.351.351 0 0 1-.352.351Z" fill="url(#j)"/><path d="M556.486 772.193a.351.351 0 0 1-.352-.351V.411a.352.352 0 1 1 .704 0v771.431a.352.352 0 0 1-.352.351Z" fill="url(#k)"/><path d="M607.86 772.193a.352.352 0 0 1-.352-.351V.411a.352.352 0 0 1 .704 0v771.431a.352.352 0 0 1-.352.351Z" fill="url(#l)"/><path d="M659.234 772.193a.352.352 0 0 1-.352-.351V.411a.352.352 0 0 1 .704 0v771.431a.352.352 0 0 1-.352.351Z" fill="url(#m)"/><path d="M710.608 772.193a.352.352 0 0 1-.352-.351V.411a.352.352 0 0 1 .704 0v771.431a.351.351 0 0 1-.352.351Z" fill="url(#n)"/><path d="M761.983 772.193a.351.351 0 0 1-.352-.351V.411a.352.352 0 1 1 .704 0l-.001 771.431a.35.35 0 0 1-.351.351Z" fill="url(#o)"/><path d="M813.357 772.193a.351.351 0 0 1-.352-.351V.411a.352.352 0 1 1 .704 0v771.431a.352.352 0 0 1-.352.351Z" fill="url(#p)"/><path d="M864.731 772.193a.352.352 0 0 1-.352-.351V.411a.352.352 0 0 1 .704 0v771.431a.352.352 0 0 1-.352.351Z" fill="url(#q)"/><path d="M916.105 772.193a.352.352 0 0 1-.352-.351V.411a.352.352 0 0 1 .704 0v771.431a.352.352 0 0 1-.352.351Z" fill="url(#r)"/><path d="M967.479 772.193a.352.352 0 0 1-.352-.351V.411a.352.352 0 0 1 .704 0v771.431a.351.351 0 0 1-.352.351Z" fill="url(#s)"/><path d="M1018.85 772.193a.353.353 0 0 1-.35-.351V.411a.355.355 0 0 1 .71 0v771.431c0 .194-.16.351-.36.351Z" fill="url(#t)"/><path d="M1070.23 772.193c-.2 0-.35-.157-.35-.351V.411c0-.194.15-.352.35-.352.19 0 .35.158.35.352v771.431c0 .194-.16.351-.35.351Z" fill="url(#u)"/><path d="M1121.6 772.193a.353.353 0 0 1-.35-.351V.411c0-.194.16-.352.35-.352.2 0 .35.158.35.352v771.431c0 .194-.15.351-.35.351Z" fill="url(#v)"/><path d="M1172.98 772.193c-.2 0-.36-.157-.36-.351V.411a.355.355 0 0 1 .71 0v771.431c0 .194-.16.351-.35.351Z" fill="url(#w)"/><path d="M1224.35 772.193a.353.353 0 0 1-.35-.351V.411c0-.194.16-.352.35-.352.19 0 .35.158.35.352v771.431c0 .194-.16.351-.35.351Z" fill="url(#x)"/><path d="M1275.72 772.193a.353.353 0 0 1-.35-.351V.411a.355.355 0 0 1 .71 0v771.431c0 .194-.16.351-.36.351Z" fill="url(#y)"/><path d="M1327.1 772.193c-.2 0-.35-.157-.35-.351V.411c0-.194.15-.352.35-.352.19 0 .35.158.35.352v771.431c0 .194-.16.351-.35.351Z" fill="url(#z)"/><path d="M.166 19.992a.35.35 0 0 1 .35-.35H1359.65c.19 0 .35.157.35.35 0 .193-.16.35-.35.35H.516a.35.35 0 0 1-.35-.35Z" fill="url(#A)"/><path d="M.166 71.048a.35.35 0 0 1 .35-.35H1359.65c.19 0 .35.157.35.35 0 .193-.16.35-.35.35H.516a.35.35 0 0 1-.35-.35Z" fill="url(#B)"/><path d="M.166 122.104a.35.35 0 0 1 .35-.35H1359.65c.19 0 .35.157.35.35 0 .193-.16.35-.35.35H.516a.35.35 0 0 1-.35-.35Z" fill="url(#C)"/><path d="M.166 173.16a.35.35 0 0 1 .35-.35H1359.65c.19 0 .35.157.35.35 0 .193-.16.35-.35.35H.516a.35.35 0 0 1-.35-.35Z" fill="url(#D)"/><path d="M.166 224.216a.35.35 0 0 1 .35-.35H1359.65c.19 0 .35.157.35.35 0 .193-.16.35-.35.35H.516a.35.35 0 0 1-.35-.35Z" fill="url(#E)"/><path d="M.166 275.272a.35.35 0 0 1 .35-.35H1359.65c.19 0 .35.157.35.35 0 .193-.16.349-.35.349L.516 275.622a.35.35 0 0 1-.35-.35Z" fill="url(#F)"/><path d="M.166 326.328a.35.35 0 0 1 .35-.35H1359.65c.19 0 .35.157.35.35 0 .193-.16.35-.35.35H.516a.35.35 0 0 1-.35-.35Z" fill="url(#G)"/><path d="M.166 377.384a.35.35 0 0 1 .35-.35H1359.65c.19 0 .35.157.35.35 0 .193-.16.349-.35.349H.516a.35.35 0 0 1-.35-.349Z" fill="url(#H)"/><path d="M.166 428.44a.35.35 0 0 1 .35-.35H1359.65c.19 0 .35.157.35.35 0 .193-.16.349-.35.349H.516a.35.35 0 0 1-.35-.349Z" fill="url(#I)"/><path d="M.166 479.496a.35.35 0 0 1 .35-.35H1359.65c.19 0 .35.157.35.35 0 .193-.16.349-.35.349H.516a.35.35 0 0 1-.35-.349Z" fill="url(#J)"/><path d="M.166 530.552a.35.35 0 0 1 .35-.35H1359.65c.19 0 .35.157.35.35 0 .193-.16.349-.35.349H.516a.35.35 0 0 1-.35-.349Z" fill="url(#K)"/><path d="M.166 581.608a.35.35 0 0 1 .35-.35H1359.65c.19 0 .35.157.35.35 0 .193-.16.349-.35.349H.516a.35.35 0 0 1-.35-.349Z" fill="url(#L)"/><path d="M.166 632.664a.35.35 0 0 1 .35-.35H1359.65c.19 0 .35.157.35.35 0 .193-.16.349-.35.349H.516a.35.35 0 0 1-.35-.349Z" fill="url(#M)"/><path d="M.166 683.72a.35.35 0 0 1 .35-.35H1359.65c.19 0 .35.156.35.35 0 .193-.16.349-.35.349H.516a.35.35 0 0 1-.35-.349Z" fill="url(#N)"/><path d="M.166 734.776a.35.35 0 0 1 .35-.35H1359.65c.19 0 .35.157.35.35 0 .193-.16.349-.35.349H.516a.35.35 0 0 1-.35-.349Z" fill="url(#O)"/></g><defs><radialGradient id="a" cx="0" cy="0" r="1" gradientUnits="userSpaceOnUse" gradientTransform="matrix(25.4343 330.77458 -378.40697 29.0969 654.647 396.893)"><stop stop-color="#fff"/><stop offset="1" stop-color="#fff" stop-opacity="0"/></radialGradient><radialGradient id="b" cx="0" cy="0" r="1" gradientUnits="userSpaceOnUse" gradientTransform="matrix(25.4343 330.77458 -378.40697 29.0969 654.647 396.893)"><stop stop-color="#fff"/><stop offset="1" stop-color="#fff" stop-opacity="0"/></radialGradient><radialGradient id="c" cx="0" cy="0" r="1" gradientUnits="userSpaceOnUse" gradientTransform="matrix(25.4343 330.77458 -378.40697 29.0969 654.647 396.893)"><stop stop-color="#fff"/><stop offset="1" stop-color="#fff" stop-opacity="0"/></radialGradient><radialGradient id="d" cx="0" cy="0" r="1" gradientUnits="userSpaceOnUse" gradientTransform="matrix(25.4343 330.77458 -378.40697 29.0969 654.647 396.893)"><stop stop-color="#fff"/><stop offset="1" stop-color="#fff" stop-opacity="0"/></radialGradient><radialGradient id="e" cx="0" cy="0" r="1" gradientUnits="userSpaceOnUse" gradientTransform="matrix(25.4343 330.77458 -378.40697 29.0969 654.647 396.893)"><stop stop-color="#fff"/><stop offset="1" stop-color="#fff" stop-opacity="0"/></radialGradient><radialGradient id="f" cx="0" cy="0" r="1" gradientUnits="userSpaceOnUse" gradientTransform="matrix(25.4343 330.77458 -378.40697 29.0969 654.647 396.893)"><stop stop-color="#fff"/><stop offset="1" stop-color="#fff" stop-opacity="0"/></radialGradient><radialGradient id="g" cx="0" cy="0" r="1" gradientUnits="userSpaceOnUse" gradientTransform="matrix(25.4343 330.77458 -378.40697 29.0969 654.647 396.893)"><stop stop-color="#fff"/><stop offset="1" stop-color="#fff" stop-opacity="0"/></radialGradient><radialGradient id="h" cx="0" cy="0" r="1" gradientUnits="userSpaceOnUse" gradientTransform="matrix(25.4343 330.77458 -378.40697 29.0969 654.647 396.893)"><stop stop-color="#fff"/><stop offset="1" stop-color="#fff" stop-opacity="0"/></radialGradient><radialGradient id="i" cx="0" cy="0" r="1" gradientUnits="userSpaceOnUse" gradientTransform="matrix(25.4343 330.77458 -378.40697 29.0969 654.647 396.893)"><stop stop-color="#fff"/><stop offset="1" stop-color="#fff" stop-opacity="0"/></radialGradient><radialGradient id="j" cx="0" cy="0" r="1" gradientUnits="userSpaceOnUse" gradientTransform="matrix(25.4343 330.77458 -378.40697 29.0969 654.647 396.893)"><stop stop-color="#fff"/><stop offset="1" stop-color="#fff" stop-opacity="0"/></radialGradient><radialGradient id="k" cx="0" cy="0" r="1" gradientUnits="userSpaceOnUse" gradientTransform="matrix(25.4343 330.77458 -378.40697 29.0969 654.647 396.893)"><stop stop-color="#fff"/><stop offset="1" stop-color="#fff" stop-opacity="0"/></radialGradient><radialGradient id="l" cx="0" cy="0" r="1" gradientUnits="userSpaceOnUse" gradientTransform="matrix(25.4343 330.77458 -378.40697 29.0969 654.647 396.893)"><stop stop-color="#fff"/><stop offset="1" stop-color="#fff" stop-opacity="0"/></radialGradient><radialGradient id="m" cx="0" cy="0" r="1" gradientUnits="userSpaceOnUse" gradientTransform="matrix(25.4343 330.77458 -378.40697 29.0969 654.647 396.893)"><stop stop-color="#fff"/><stop offset="1" stop-color="#fff" stop-opacity="0"/></radialGradient><radialGradient id="n" cx="0" cy="0" r="1" gradientUnits="userSpaceOnUse" gradientTransform="matrix(25.4343 330.77458 -378.40697 29.0969 654.647 396.893)"><stop stop-color="#fff"/><stop offset="1" stop-color="#fff" stop-opacity="0"/></radialGradient><radialGradient id="o" cx="0" cy="0" r="1" gradientUnits="userSpaceOnUse" gradientTransform="matrix(25.4343 330.77458 -378.40697 29.0969 654.647 396.893)"><stop stop-color="#fff"/><stop offset="1" stop-color="#fff" stop-opacity="0"/></radialGradient><radialGradient id="p" cx="0" cy="0" r="1" gradientUnits="userSpaceOnUse" gradientTransform="matrix(25.4343 330.77458 -378.40697 29.0969 654.647 396.893)"><stop stop-color="#fff"/><stop offset="1" stop-color="#fff" stop-opacity="0"/></radialGradient><radialGradient id="q" cx="0" cy="0" r="1" gradientUnits="userSpaceOnUse" gradientTransform="matrix(25.4343 330.77458 -378.40697 29.0969 654.647 396.893)"><stop stop-color="#fff"/><stop offset="1" stop-color="#fff" stop-opacity="0"/></radialGradient><radialGradient id="r" cx="0" cy="0" r="1" gradientUnits="userSpaceOnUse" gradientTransform="matrix(25.4343 330.77458 -378.40697 29.0969 654.647 396.893)"><stop stop-color="#fff"/><stop offset="1" stop-color="#fff" stop-opacity="0"/></radialGradient><radialGradient id="s" cx="0" cy="0" r="1" gradientUnits="userSpaceOnUse" gradientTransform="matrix(25.4343 330.77458 -378.40697 29.0969 654.647 396.893)"><stop stop-color="#fff"/><stop offset="1" stop-color="#fff" stop-opacity="0"/></radialGradient><radialGradient id="t" cx="0" cy="0" r="1" gradientUnits="userSpaceOnUse" gradientTransform="matrix(25.4343 330.77458 -378.40697 29.0969 654.647 396.893)"><stop stop-color="#fff"/><stop offset="1" stop-color="#fff" stop-opacity="0"/></radialGradient><radialGradient id="u" cx="0" cy="0" r="1" gradientUnits="userSpaceOnUse" gradientTransform="matrix(25.4343 330.77458 -378.40697 29.0969 654.647 396.893)"><stop stop-color="#fff"/><stop offset="1" stop-color="#fff" stop-opacity="0"/></radialGradient><radialGradient id="v" cx="0" cy="0" r="1" gradientUnits="userSpaceOnUse" gradientTransform="matrix(25.4343 330.77458 -378.40697 29.0969 654.647 396.893)"><stop stop-color="#fff"/><stop offset="1" stop-color="#fff" stop-opacity="0"/></radialGradient><radialGradient id="w" cx="0" cy="0" r="1" gradientUnits="userSpaceOnUse" gradientTransform="matrix(25.4343 330.77458 -378.40697 29.0969 654.647 396.893)"><stop stop-color="#fff"/><stop offset="1" stop-color="#fff" stop-opacity="0"/></radialGradient><radialGradient id="x" cx="0" cy="0" r="1" gradientUnits="userSpaceOnUse" gradientTransform="matrix(25.4343 330.77458 -378.40697 29.0969 654.647 396.893)"><stop stop-color="#fff"/><stop offset="1" stop-color="#fff" stop-opacity="0"/></radialGradient><radialGradient id="y" cx="0" cy="0" r="1" gradientUnits="userSpaceOnUse" gradientTransform="matrix(25.4343 330.77458 -378.40697 29.0969 654.647 396.893)"><stop stop-color="#fff"/><stop offset="1" stop-color="#fff" stop-opacity="0"/></radialGradient><radialGradient id="z" cx="0" cy="0" r="1" gradientUnits="userSpaceOnUse" gradientTransform="matrix(25.4343 330.77458 -378.40697 29.0969 654.647 396.893)"><stop stop-color="#fff"/><stop offset="1" stop-color="#fff" stop-opacity="0"/></radialGradient><radialGradient id="A" cx="0" cy="0" r="1" gradientUnits="userSpaceOnUse" gradientTransform="matrix(25.4343 330.77458 -378.40697 29.0969 654.647 396.893)"><stop stop-color="#fff"/><stop offset="1" stop-color="#fff" stop-opacity="0"/></radialGradient><radialGradient id="B" cx="0" cy="0" r="1" gradientUnits="userSpaceOnUse" gradientTransform="matrix(25.4343 330.77458 -378.40697 29.0969 654.647 396.893)"><stop stop-color="#fff"/><stop offset="1" stop-color="#fff" stop-opacity="0"/></radialGradient><radialGradient id="C" cx="0" cy="0" r="1" gradientUnits="userSpaceOnUse" gradientTransform="matrix(25.4343 330.77458 -378.40697 29.0969 654.647 396.893)"><stop stop-color="#fff"/><stop offset="1" stop-color="#fff" stop-opacity="0"/></radialGradient><radialGradient id="D" cx="0" cy="0" r="1" gradientUnits="userSpaceOnUse" gradientTransform="matrix(25.4343 330.77458 -378.40697 29.0969 654.647 396.893)"><stop stop-color="#fff"/><stop offset="1" stop-color="#fff" stop-opacity="0"/></radialGradient><radialGradient id="E" cx="0" cy="0" r="1" gradientUnits="userSpaceOnUse" gradientTransform="matrix(25.4343 330.77458 -378.40697 29.0969 654.647 396.893)"><stop stop-color="#fff"/><stop offset="1" stop-color="#fff" stop-opacity="0"/></radialGradient><radialGradient id="F" cx="0" cy="0" r="1" gradientUnits="userSpaceOnUse" gradientTransform="matrix(25.4343 330.77458 -378.40697 29.0969 654.647 396.893)"><stop stop-color="#fff"/><stop offset="1" stop-color="#fff" stop-opacity="0"/></radialGradient><radialGradient id="G" cx="0" cy="0" r="1" gradientUnits="userSpaceOnUse" gradientTransform="matrix(25.4343 330.77458 -378.40697 29.0969 654.647 396.893)"><stop stop-color="#fff"/><stop offset="1" stop-color="#fff" stop-opacity="0"/></radialGradient><radialGradient id="H" cx="0" cy="0" r="1" gradientUnits="userSpaceOnUse" gradientTransform="matrix(25.4343 330.77458 -378.40697 29.0969 654.647 396.893)"><stop stop-color="#fff"/><stop offset="1" stop-color="#fff" stop-opacity="0"/></radialGradient><radialGradient id="I" cx="0" cy="0" r="1" gradientUnits="userSpaceOnUse" gradientTransform="matrix(25.4343 330.77458 -378.40697 29.0969 654.647 396.893)"><stop stop-color="#fff"/><stop offset="1" stop-color="#fff" stop-opacity="0"/></radialGradient><radialGradient id="J" cx="0" cy="0" r="1" gradientUnits="userSpaceOnUse" gradientTransform="matrix(25.4343 330.77458 -378.40697 29.0969 654.647 396.893)"><stop stop-color="#fff"/><stop offset="1" stop-color="#fff" stop-opacity="0"/></radialGradient><radialGradient id="K" cx="0" cy="0" r="1" gradientUnits="userSpaceOnUse" gradientTransform="matrix(25.4343 330.77458 -378.40697 29.0969 654.647 396.893)"><stop stop-color="#fff"/><stop offset="1" stop-color="#fff" stop-opacity="0"/></radialGradient><radialGradient id="L" cx="0" cy="0" r="1" gradientUnits="userSpaceOnUse" gradientTransform="matrix(25.4343 330.77458 -378.40697 29.0969 654.647 396.893)"><stop stop-color="#fff"/><stop offset="1" stop-color="#fff" stop-opacity="0"/></radialGradient><radialGradient id="M" cx="0" cy="0" r="1" gradientUnits="userSpaceOnUse" gradientTransform="matrix(25.4343 330.77458 -378.40697 29.0969 654.647 396.893)"><stop stop-color="#fff"/><stop offset="1" stop-color="#fff" stop-opacity="0"/></radialGradient><radialGradient id="N" cx="0" cy="0" r="1" gradientUnits="userSpaceOnUse" gradientTransform="matrix(25.4343 330.77458 -378.40697 29.0969 654.647 396.893)"><stop stop-color="#fff"/><stop offset="1" stop-color="#fff" stop-opacity="0"/></radialGradient><radialGradient id="O" cx="0" cy="0" r="1" gradientUnits="userSpaceOnUse" gradientTransform="matrix(25.4343 330.77458 -378.40697 29.0969 654.647 396.893)"><stop stop-color="#fff"/><stop offset="1" stop-color="#fff" stop-opacity="0"/></radialGradient></defs></svg>