<svg width="420" height="258" viewBox="0 0 420 258" fill="none" xmlns="http://www.w3.org/2000/svg"><g opacity=".6"><g opacity=".1" fill-rule="evenodd" clipRule="evenodd"><path d="M4.678 257.2a.203.203 0 0 1-.202-.203v-444.194a.203.203 0 1 1 .405 0v444.194c0 .112-.09.203-.203.203Z" fill="url(#a)"/><path d="M34.26 257.2a.203.203 0 0 1-.203-.203v-444.194a.203.203 0 1 1 .406 0v444.194a.203.203 0 0 1-.203.203Z" fill="url(#b)"/><path d="M63.842 257.2a.203.203 0 0 1-.203-.203v-444.194a.203.203 0 1 1 .405 0v444.194c0 .112-.09.203-.202.203Z" fill="url(#c)"/><path d="M93.423 257.2a.203.203 0 0 1-.202-.203v-444.194a.203.203 0 1 1 .405 0v444.194c0 .112-.09.203-.203.203Z" fill="url(#d)"/><path d="M123.005 257.2a.203.203 0 0 1-.203-.203v-444.194a.202.202 0 1 1 .405 0v444.194c0 .112-.09.203-.202.203Z" fill="url(#e)"/><path d="M152.586 257.2a.203.203 0 0 1-.202-.203v-444.194a.203.203 0 1 1 .405 0v444.194a.203.203 0 0 1-.203.203Z" fill="url(#f)"/><path d="M182.168 257.2a.203.203 0 0 1-.203-.203v-444.194a.203.203 0 0 1 .406 0v444.194a.203.203 0 0 1-.203.203Z" fill="url(#g)"/><path d="M211.75 257.2a.203.203 0 0 1-.203-.203v-444.194a.202.202 0 1 1 .405 0v444.194c0 .112-.09.203-.202.203Z" fill="url(#h)"/><path d="M241.331 257.2a.202.202 0 0 1-.202-.203v-444.194a.202.202 0 1 1 .405 0v444.194a.203.203 0 0 1-.203.203Z" fill="url(#i)"/><path d="M270.913 257.2a.203.203 0 0 1-.203-.203v-444.194a.203.203 0 0 1 .406 0v444.194a.203.203 0 0 1-.203.203Z" fill="url(#j)"/><path d="M300.495 257.2a.203.203 0 0 1-.203-.203v-444.194a.203.203 0 1 1 .405 0v444.194a.203.203 0 0 1-.202.203Z" fill="url(#k)"/><path d="M330.076 257.2a.202.202 0 0 1-.202-.203v-444.194a.202.202 0 1 1 .405 0v444.194a.203.203 0 0 1-.203.203Z" fill="url(#l)"/><path d="M359.658 257.2a.203.203 0 0 1-.203-.203v-444.194a.202.202 0 1 1 .405 0v444.194c0 .112-.09.203-.202.203Z" fill="url(#m)"/><path d="M389.239 257.2a.202.202 0 0 1-.202-.203v-444.194a.202.202 0 1 1 .405 0v444.194a.203.203 0 0 1-.203.203Z" fill="url(#n)"/><path d="M418.821 257.2a.203.203 0 0 1-.203-.203v-444.194a.203.203 0 0 1 .406 0v444.194a.203.203 0 0 1-.203.203Z" fill="url(#o)"/><path d="M448.403 257.2a.203.203 0 0 1-.203-.203v-444.194a.203.203 0 1 1 .405 0v444.194a.203.203 0 0 1-.202.203Z" fill="url(#p)"/><path d="M477.984 257.2a.202.202 0 0 1-.202-.203v-444.194a.202.202 0 1 1 .405 0v444.194a.203.203 0 0 1-.203.203Z" fill="url(#q)"/><path d="M507.566 257.2a.203.203 0 0 1-.203-.203v-444.194a.202.202 0 1 1 .405 0v444.194c0 .112-.09.203-.202.203Z" fill="url(#r)"/><path d="M537.147 257.2a.202.202 0 0 1-.202-.203v-444.194a.202.202 0 1 1 .405 0v444.194a.203.203 0 0 1-.203.203Z" fill="url(#s)"/><path d="M566.729 257.2a.203.203 0 0 1-.203-.203v-444.194a.203.203 0 0 1 .406 0v444.194a.203.203 0 0 1-.203.203Z" fill="url(#t)"/><path d="M596.31 257.2a.203.203 0 0 1-.202-.203v-444.194a.203.203 0 1 1 .405 0v444.194a.203.203 0 0 1-.203.203Z" fill="url(#u)"/><path d="M625.892 257.2a.202.202 0 0 1-.202-.203v-444.194a.202.202 0 1 1 .405 0v444.194a.203.203 0 0 1-.203.203Z" fill="url(#v)"/><path d="M655.474 257.2a.203.203 0 0 1-.203-.203v-444.194a.202.202 0 1 1 .405 0v444.194c0 .112-.09.203-.202.203Z" fill="url(#w)"/><path d="M685.055 257.2a.202.202 0 0 1-.202-.203v-444.194a.202.202 0 1 1 .405 0v444.194a.203.203 0 0 1-.203.203Z" fill="url(#x)"/><path d="M714.637 257.2a.203.203 0 0 1-.203-.203v-444.194a.203.203 0 0 1 .406 0l-.001 444.194c0 .112-.09.203-.202.203Z" fill="url(#y)"/><path d="M744.218 257.2a.203.203 0 0 1-.202-.203v-444.194a.203.203 0 1 1 .405 0v444.194a.203.203 0 0 1-.203.203Z" fill="url(#z)"/><path d="M-19.838-175.923c0-.111.09-.201.201-.201h782.598a.201.201 0 0 1 0 .403H-19.636a.201.201 0 0 1-.202-.202Z" fill="url(#A)"/><path d="M-19.838-146.524c0-.111.09-.202.201-.202h782.598a.202.202 0 0 1 0 .403H-19.636a.201.201 0 0 1-.202-.201Z" fill="url(#B)"/><path d="M-19.838-117.126c0-.111.09-.201.201-.201h782.598a.201.201 0 0 1 0 .403H-19.636a.202.202 0 0 1-.202-.202Z" fill="url(#C)"/><path d="M-19.838-87.727c0-.112.09-.202.201-.202h782.598a.201.201 0 0 1 0 .403H-19.636a.201.201 0 0 1-.202-.201Z" fill="url(#D)"/><path d="M-19.838-58.33c0-.11.09-.2.201-.2h782.598a.201.201 0 0 1 0 .402H-19.636a.201.201 0 0 1-.202-.201Z" fill="url(#E)"/><path d="M-19.838-28.93c0-.112.09-.202.201-.202h782.598a.201.201 0 0 1 0 .403H-19.636a.201.201 0 0 1-.202-.202Z" fill="url(#F)"/><path d="M-19.838.468c0-.112.09-.202.201-.202h782.598a.201.201 0 0 1 0 .403H-19.636a.201.201 0 0 1-.202-.201Z" fill="url(#G)"/><path d="M-19.838 29.866c0-.111.09-.201.201-.201h782.598a.201.201 0 0 1 0 .402H-19.636a.201.201 0 0 1-.202-.201Z" fill="url(#H)"/><path d="M-19.838 59.264c0-.11.09-.2.201-.2l782.598-.001a.201.201 0 0 1 0 .403H-19.636a.201.201 0 0 1-.202-.202Z" fill="url(#I)"/><path d="M-19.838 88.663c0-.111.09-.202.201-.202h782.598a.201.201 0 0 1 0 .403H-19.636a.201.201 0 0 1-.202-.201Z" fill="url(#J)"/><path d="M-19.838 118.061c0-.111.09-.201.201-.201h782.598a.201.201 0 0 1 0 .403H-19.636a.202.202 0 0 1-.202-.202Z" fill="url(#K)"/><path d="M-19.838 147.46c0-.112.09-.202.201-.202h782.598a.201.201 0 0 1 0 .403H-19.636a.201.201 0 0 1-.202-.201Z" fill="url(#L)"/><path d="M-19.838 176.858c0-.111.09-.201.201-.201h782.598a.201.201 0 0 1 0 .402H-19.636a.201.201 0 0 1-.202-.201Z" fill="url(#M)"/><path d="M-19.838 206.256c0-.111.09-.201.201-.201h782.598a.201.201 0 0 1 0 .403H-19.637a.202.202 0 0 1-.2-.202Z" fill="url(#N)"/><path d="M-19.838 235.655c0-.112.09-.202.201-.202h782.598a.201.201 0 0 1 0 .403H-19.636a.201.201 0 0 1-.202-.201Z" fill="url(#O)"/></g></g><defs><radialGradient id="a" cx="0" cy="0" r="1" gradientUnits="userSpaceOnUse" gradientTransform="matrix(14.64594 190.46272 -217.88975 16.755 357.016 41.099)"><stop stop-color="#fff"/><stop offset="1" stop-color="#fff" stop-opacity="0"/></radialGradient><radialGradient id="b" cx="0" cy="0" r="1" gradientUnits="userSpaceOnUse" gradientTransform="matrix(14.64594 190.46272 -217.88975 16.755 357.016 41.099)"><stop stop-color="#fff"/><stop offset="1" stop-color="#fff" stop-opacity="0"/></radialGradient><radialGradient id="c" cx="0" cy="0" r="1" gradientUnits="userSpaceOnUse" gradientTransform="matrix(14.64594 190.46272 -217.88975 16.755 357.016 41.099)"><stop stop-color="#fff"/><stop offset="1" stop-color="#fff" stop-opacity="0"/></radialGradient><radialGradient id="d" cx="0" cy="0" r="1" gradientUnits="userSpaceOnUse" gradientTransform="matrix(14.64594 190.46272 -217.88975 16.755 357.016 41.099)"><stop stop-color="#fff"/><stop offset="1" stop-color="#fff" stop-opacity="0"/></radialGradient><radialGradient id="e" cx="0" cy="0" r="1" gradientUnits="userSpaceOnUse" gradientTransform="matrix(14.64594 190.46272 -217.88975 16.755 357.016 41.099)"><stop stop-color="#fff"/><stop offset="1" stop-color="#fff" stop-opacity="0"/></radialGradient><radialGradient id="f" cx="0" cy="0" r="1" gradientUnits="userSpaceOnUse" gradientTransform="matrix(14.64594 190.46272 -217.88975 16.755 357.016 41.099)"><stop stop-color="#fff"/><stop offset="1" stop-color="#fff" stop-opacity="0"/></radialGradient><radialGradient id="g" cx="0" cy="0" r="1" gradientUnits="userSpaceOnUse" gradientTransform="matrix(14.64594 190.46272 -217.88975 16.755 357.016 41.099)"><stop stop-color="#fff"/><stop offset="1" stop-color="#fff" stop-opacity="0"/></radialGradient><radialGradient id="h" cx="0" cy="0" r="1" gradientUnits="userSpaceOnUse" gradientTransform="matrix(14.64594 190.46272 -217.88975 16.755 357.016 41.099)"><stop stop-color="#fff"/><stop offset="1" stop-color="#fff" stop-opacity="0"/></radialGradient><radialGradient id="i" cx="0" cy="0" r="1" gradientUnits="userSpaceOnUse" gradientTransform="matrix(14.64594 190.46272 -217.88975 16.755 357.016 41.099)"><stop stop-color="#fff"/><stop offset="1" stop-color="#fff" stop-opacity="0"/></radialGradient><radialGradient id="j" cx="0" cy="0" r="1" gradientUnits="userSpaceOnUse" gradientTransform="matrix(14.64594 190.46272 -217.88975 16.755 357.016 41.099)"><stop stop-color="#fff"/><stop offset="1" stop-color="#fff" stop-opacity="0"/></radialGradient><radialGradient id="k" cx="0" cy="0" r="1" gradientUnits="userSpaceOnUse" gradientTransform="matrix(14.64594 190.46272 -217.88975 16.755 357.016 41.099)"><stop stop-color="#fff"/><stop offset="1" stop-color="#fff" stop-opacity="0"/></radialGradient><radialGradient id="l" cx="0" cy="0" r="1" gradientUnits="userSpaceOnUse" gradientTransform="matrix(14.64594 190.46272 -217.88975 16.755 357.016 41.099)"><stop stop-color="#fff"/><stop offset="1" stop-color="#fff" stop-opacity="0"/></radialGradient><radialGradient id="m" cx="0" cy="0" r="1" gradientUnits="userSpaceOnUse" gradientTransform="matrix(14.64594 190.46272 -217.88975 16.755 357.016 41.099)"><stop stop-color="#fff"/><stop offset="1" stop-color="#fff" stop-opacity="0"/></radialGradient><radialGradient id="n" cx="0" cy="0" r="1" gradientUnits="userSpaceOnUse" gradientTransform="matrix(14.64594 190.46272 -217.88975 16.755 357.016 41.099)"><stop stop-color="#fff"/><stop offset="1" stop-color="#fff" stop-opacity="0"/></radialGradient><radialGradient id="o" cx="0" cy="0" r="1" gradientUnits="userSpaceOnUse" gradientTransform="matrix(14.64594 190.46272 -217.88975 16.755 357.016 41.099)"><stop stop-color="#fff"/><stop offset="1" stop-color="#fff" stop-opacity="0"/></radialGradient><radialGradient id="p" cx="0" cy="0" r="1" gradientUnits="userSpaceOnUse" gradientTransform="matrix(14.64594 190.46272 -217.88975 16.755 357.016 41.099)"><stop stop-color="#fff"/><stop offset="1" stop-color="#fff" stop-opacity="0"/></radialGradient><radialGradient id="q" cx="0" cy="0" r="1" gradientUnits="userSpaceOnUse" gradientTransform="matrix(14.64594 190.46272 -217.88975 16.755 357.016 41.099)"><stop stop-color="#fff"/><stop offset="1" stop-color="#fff" stop-opacity="0"/></radialGradient><radialGradient id="r" cx="0" cy="0" r="1" gradientUnits="userSpaceOnUse" gradientTransform="matrix(14.64594 190.46272 -217.88975 16.755 357.016 41.099)"><stop stop-color="#fff"/><stop offset="1" stop-color="#fff" stop-opacity="0"/></radialGradient><radialGradient id="s" cx="0" cy="0" r="1" gradientUnits="userSpaceOnUse" gradientTransform="matrix(14.64594 190.46272 -217.88975 16.755 357.016 41.099)"><stop stop-color="#fff"/><stop offset="1" stop-color="#fff" stop-opacity="0"/></radialGradient><radialGradient id="t" cx="0" cy="0" r="1" gradientUnits="userSpaceOnUse" gradientTransform="matrix(14.64594 190.46272 -217.88975 16.755 357.016 41.099)"><stop stop-color="#fff"/><stop offset="1" stop-color="#fff" stop-opacity="0"/></radialGradient><radialGradient id="u" cx="0" cy="0" r="1" gradientUnits="userSpaceOnUse" gradientTransform="matrix(14.64594 190.46272 -217.88975 16.755 357.016 41.099)"><stop stop-color="#fff"/><stop offset="1" stop-color="#fff" stop-opacity="0"/></radialGradient><radialGradient id="v" cx="0" cy="0" r="1" gradientUnits="userSpaceOnUse" gradientTransform="matrix(14.64594 190.46272 -217.88975 16.755 357.016 41.099)"><stop stop-color="#fff"/><stop offset="1" stop-color="#fff" stop-opacity="0"/></radialGradient><radialGradient id="w" cx="0" cy="0" r="1" gradientUnits="userSpaceOnUse" gradientTransform="matrix(14.64594 190.46272 -217.88975 16.755 357.016 41.099)"><stop stop-color="#fff"/><stop offset="1" stop-color="#fff" stop-opacity="0"/></radialGradient><radialGradient id="x" cx="0" cy="0" r="1" gradientUnits="userSpaceOnUse" gradientTransform="matrix(14.64594 190.46272 -217.88975 16.755 357.016 41.099)"><stop stop-color="#fff"/><stop offset="1" stop-color="#fff" stop-opacity="0"/></radialGradient><radialGradient id="y" cx="0" cy="0" r="1" gradientUnits="userSpaceOnUse" gradientTransform="matrix(14.64594 190.46272 -217.88975 16.755 357.016 41.099)"><stop stop-color="#fff"/><stop offset="1" stop-color="#fff" stop-opacity="0"/></radialGradient><radialGradient id="z" cx="0" cy="0" r="1" gradientUnits="userSpaceOnUse" gradientTransform="matrix(14.64594 190.46272 -217.88975 16.755 357.016 41.099)"><stop stop-color="#fff"/><stop offset="1" stop-color="#fff" stop-opacity="0"/></radialGradient><radialGradient id="A" cx="0" cy="0" r="1" gradientUnits="userSpaceOnUse" gradientTransform="matrix(14.64594 190.46272 -217.88975 16.755 357.016 41.099)"><stop stop-color="#fff"/><stop offset="1" stop-color="#fff" stop-opacity="0"/></radialGradient><radialGradient id="B" cx="0" cy="0" r="1" gradientUnits="userSpaceOnUse" gradientTransform="matrix(14.64594 190.46272 -217.88975 16.755 357.016 41.099)"><stop stop-color="#fff"/><stop offset="1" stop-color="#fff" stop-opacity="0"/></radialGradient><radialGradient id="C" cx="0" cy="0" r="1" gradientUnits="userSpaceOnUse" gradientTransform="matrix(14.64594 190.46272 -217.88975 16.755 357.016 41.099)"><stop stop-color="#fff"/><stop offset="1" stop-color="#fff" stop-opacity="0"/></radialGradient><radialGradient id="D" cx="0" cy="0" r="1" gradientUnits="userSpaceOnUse" gradientTransform="matrix(14.64594 190.46272 -217.88975 16.755 357.016 41.099)"><stop stop-color="#fff"/><stop offset="1" stop-color="#fff" stop-opacity="0"/></radialGradient><radialGradient id="E" cx="0" cy="0" r="1" gradientUnits="userSpaceOnUse" gradientTransform="matrix(14.64594 190.46272 -217.88975 16.755 357.016 41.099)"><stop stop-color="#fff"/><stop offset="1" stop-color="#fff" stop-opacity="0"/></radialGradient><radialGradient id="F" cx="0" cy="0" r="1" gradientUnits="userSpaceOnUse" gradientTransform="matrix(14.64594 190.46272 -217.88975 16.755 357.016 41.099)"><stop stop-color="#fff"/><stop offset="1" stop-color="#fff" stop-opacity="0"/></radialGradient><radialGradient id="G" cx="0" cy="0" r="1" gradientUnits="userSpaceOnUse" gradientTransform="matrix(14.64594 190.46272 -217.88975 16.755 357.016 41.099)"><stop stop-color="#fff"/><stop offset="1" stop-color="#fff" stop-opacity="0"/></radialGradient><radialGradient id="H" cx="0" cy="0" r="1" gradientUnits="userSpaceOnUse" gradientTransform="matrix(14.64594 190.46272 -217.88975 16.755 357.016 41.099)"><stop stop-color="#fff"/><stop offset="1" stop-color="#fff" stop-opacity="0"/></radialGradient><radialGradient id="I" cx="0" cy="0" r="1" gradientUnits="userSpaceOnUse" gradientTransform="matrix(14.64594 190.46272 -217.88975 16.755 357.016 41.099)"><stop stop-color="#fff"/><stop offset="1" stop-color="#fff" stop-opacity="0"/></radialGradient><radialGradient id="J" cx="0" cy="0" r="1" gradientUnits="userSpaceOnUse" gradientTransform="matrix(14.64594 190.46272 -217.88975 16.755 357.016 41.099)"><stop stop-color="#fff"/><stop offset="1" stop-color="#fff" stop-opacity="0"/></radialGradient><radialGradient id="K" cx="0" cy="0" r="1" gradientUnits="userSpaceOnUse" gradientTransform="matrix(14.64594 190.46272 -217.88975 16.755 357.016 41.099)"><stop stop-color="#fff"/><stop offset="1" stop-color="#fff" stop-opacity="0"/></radialGradient><radialGradient id="L" cx="0" cy="0" r="1" gradientUnits="userSpaceOnUse" gradientTransform="matrix(14.64594 190.46272 -217.88975 16.755 357.016 41.099)"><stop stop-color="#fff"/><stop offset="1" stop-color="#fff" stop-opacity="0"/></radialGradient><radialGradient id="M" cx="0" cy="0" r="1" gradientUnits="userSpaceOnUse" gradientTransform="matrix(14.64594 190.46272 -217.88975 16.755 357.016 41.099)"><stop stop-color="#fff"/><stop offset="1" stop-color="#fff" stop-opacity="0"/></radialGradient><radialGradient id="N" cx="0" cy="0" r="1" gradientUnits="userSpaceOnUse" gradientTransform="matrix(14.64594 190.46272 -217.88975 16.755 357.016 41.099)"><stop stop-color="#fff"/><stop offset="1" stop-color="#fff" stop-opacity="0"/></radialGradient><radialGradient id="O" cx="0" cy="0" r="1" gradientUnits="userSpaceOnUse" gradientTransform="matrix(14.64594 190.46272 -217.88975 16.755 357.016 41.099)"><stop stop-color="#fff"/><stop offset="1" stop-color="#fff" stop-opacity="0"/></radialGradient></defs></svg>