<svg width="20" height="20" viewBox="0 0 20 20" fill="none" xmlns="http://www.w3.org/2000/svg"><path fill="#1E1E1E" d="M0 0h20v20H0z"/><path d="M-1227-341c0-1.105.9-2 2-2H648a2 2 0 0 1 2 2v2107c0 1.1-.895 2-2 2h-1873c-1.1 0-2-.9-2-2V-341Z" fill="#040512"/><path d="M-1157-271c0-1.105.9-2 2-2H578a2 2 0 0 1 2 2v540a2 2 0 0 1-2 2h-1733c-1.1 0-2-.895-2-2v-540Z" fill="#040512"/><path d="M-167-69a2 2 0 0 1 2-2h290a2 2 0 0 1 2 2V65a2 2 0 0 1-2 2h-290a2 2 0 0 1-2-2V-69Z" fill="#040512"/><rect x=".5" y=".5" width="19" height="19" rx="2.5" stroke="#2D3042"/><path d="M-165-70h290v-2h-290v2Zm291 1V65h2V-69h-2Zm-1 135h-290v2h290v-2Zm-291-1V-69h-2V65h2Zm1 1a1 1 0 0 1-1-1h-2a3 3 0 0 0 3 3v-2Zm291-1a1 1 0 0 1-1 1v2a3 3 0 0 0 3-3h-2Zm-1-135a1 1 0 0 1 1 1h2a3 3 0 0 0-3-3v2Zm-290-2a3 3 0 0 0-3 3h2a1 1 0 0 1 1-1v-2Zm-990-200H578v-2h-1733v2Zm1734 1v540h2v-540h-2Zm-1 541h-1733v2H578v-2Zm-1734-1v-540h-2v540h2Zm1 1c-.55 0-1-.448-1-1h-2c0 1.657 1.34 3 3 3v-2Zm1734-1a1 1 0 0 1-1 1v2a3 3 0 0 0 3-3h-2Zm-1-541a1 1 0 0 1 1 1h2a3 3 0 0 0-3-3v2Zm-1733-2c-1.66 0-3 1.343-3 3h2c0-.552.45-1 1-1v-2Zm-70-68H648v-2h-1873v2Zm1874 1v2107h2V-341h-2Zm-1 2108h-1873v2H648v-2Zm-1874-1V-341h-2v2107h2Zm1 1c-.55 0-1-.45-1-1h-2c0 1.66 1.34 3 3 3v-2Zm1874-1c0 .55-.448 1-1 1v2c1.657 0 3-1.34 3-3h-2Zm-1-2108a1 1 0 0 1 1 1h2a3 3 0 0 0-3-3v2Zm-1873-2c-1.66 0-3 1.343-3 3h2c0-.552.45-1 1-1v-2Z" fill="#fff" fill-opacity=".1"/></svg>