<svg width="40" height="40" viewBox="0 0 40 40" fill="none" xmlns="http://www.w3.org/2000/svg"><g clip-path="url(#a)"><path d="M19.994 39.972c11.042 0 19.995-8.937 19.995-19.965C39.989 8.982 31.036.043 19.994.043 8.95.042 0 8.982 0 20.007c0 11.027 8.951 19.965 19.994 19.965Z" fill="#6496DC"/><path d="M15.699 25.587 28.646 12.66a3.45 3.45 0 0 1 4.877 0l.006.005a3.436 3.436 0 0 1 0 4.87l-8.067 8.052a6.913 6.913 0 0 1-9.763 0Zm8.59-11.16L11.34 27.358a3.45 3.45 0 0 1-4.876 0l-.006-.007a3.439 3.439 0 0 1 0-4.869l8.066-8.054a6.913 6.913 0 0 1 9.764 0Z" fill="#fff"/></g><defs><clipPath id="a"><path fill="#fff" d="M0 0h40v40H0z"/></clipPath></defs></svg>