<svg width="42" height="42" viewBox="0 0 42 42" fill="none" xmlns="http://www.w3.org/2000/svg"><circle cx="21" cy="21" r="21" fill="#171828"/><path d="M12.667 16.833A3.333 3.333 0 0 1 16 13.5h10a3.333 3.333 0 0 1 3.333 3.333v8.334A3.333 3.333 0 0 1 26 28.5H16a3.333 3.333 0 0 1-3.333-3.333v-8.334Z" fill="#fff"/><path fill-rule="evenodd" clipRule="evenodd" d="M15.48 17.32a.625.625 0 0 1 .867-.173l3.15 2.1c.91.607 2.096.607 3.005 0l3.151-2.1a.625.625 0 1 1 .694 1.04l-3.151 2.1a3.958 3.958 0 0 1-4.392 0l-3.15-2.1a.625.625 0 0 1-.174-.867Z" fill="#131520"/></svg>