<svg width="40" height="40" viewBox="0 0 40 40" fill="none" xmlns="http://www.w3.org/2000/svg">
<path opacity="0.4" fill-rule="evenodd" clipRule="evenodd" d="M3.75 35C3.75 34.3096 4.30964 33.75 5 33.75H35C35.6904 33.75 36.25 34.3096 36.25 35C36.25 35.6904 35.6904 36.25 35 36.25H5C4.30964 36.25 3.75 35.6904 3.75 35Z" fill="#1683E2"/>
<path d="M12.1994 29.9802L17.9206 29.1629C18.7458 29.045 19.5106 28.6626 20.1001 28.0732L31.1471 17.0261C31.1471 17.0261 28.4228 17.0261 25.6984 14.3017C22.974 11.5773 22.974 8.85297 22.974 8.85297L11.9269 19.9C11.3375 20.4895 10.9551 21.2543 10.8372 22.0795L10.0199 27.8007C9.83825 29.0721 10.928 30.1619 12.1994 29.9802Z" fill="#1683E2"/>
<path opacity="0.4" d="M33.8716 8.85285L31.1473 6.12847C29.6426 4.62384 27.2031 4.62384 25.6985 6.12847L22.9741 8.85285C22.9741 8.85285 22.9741 11.5772 25.6985 14.3016C28.4229 17.026 31.1472 17.026 31.1472 17.026L33.8716 14.3016C35.3763 12.797 35.3763 10.3575 33.8716 8.85285Z" fill="#1683E2"/>
</svg>
