<svg width="40" height="40" viewBox="0 0 40 40" fill="none" xmlns="http://www.w3.org/2000/svg">
<path opacity="0.4" d="M11.6667 15L28.3333 15C32.0152 15 35 17.9848 35 21.6667L35 28.3333C35 32.0152 32.0152 35 28.3333 35L11.6667 35C7.98477 35 5 32.0152 5 28.3333L5 21.6667C5 17.9848 7.98477 15 11.6667 15Z" fill="#1683E2"/>
<path fill-rule="evenodd" clip-rule="evenodd" d="M14.1161 19.1161C13.628 19.6043 13.628 20.3957 14.1161 20.8839L19.1161 25.8839C19.6043 26.372 20.3957 26.372 20.8839 25.8839L25.8839 20.8839C26.372 20.3957 26.372 19.6043 25.8839 19.1161C25.3957 18.628 24.6043 18.628 24.1161 19.1161L21.25 21.9822L21.25 5C21.25 4.30964 20.6904 3.75 20 3.75C19.3096 3.75 18.75 4.30964 18.75 5L18.75 21.9822L15.8839 19.1161C15.3957 18.628 14.6043 18.628 14.1161 19.1161Z" fill="#1683E2"/>
</svg>
