<svg width="40" height="40" viewBox="0 0 40 40" fill="none" xmlns="http://www.w3.org/2000/svg">
<path fill-rule="evenodd" clipRule="evenodd" d="M14.9997 5.41666C15.5043 5.41666 15.9594 5.72008 16.1535 6.18589L24.4869 26.1859C24.7524 26.8231 24.451 27.555 23.8138 27.8205C23.1765 28.086 22.4447 27.7847 22.1792 27.1474L19.7219 21.25H10.2775L7.82019 27.1474C7.55467 27.7847 6.82282 28.086 6.18557 27.8205C5.54832 27.555 5.24697 26.8231 5.5125 26.1859L13.8458 6.18589C14.0399 5.72008 14.495 5.41666 14.9997 5.41666ZM11.3191 18.75H18.6802L14.9997 9.91666L11.3191 18.75Z" fill="#1683E2"/>
<path opacity="0.4" fill-rule="evenodd" clipRule="evenodd" d="M34.1915 22.4246C34.6934 22.8986 34.716 23.6897 34.242 24.1916L25.9148 33.0087C24.8275 34.1599 23.0202 34.2333 21.8432 33.174L17.4971 29.2625C16.9839 28.8006 16.9423 28.0103 17.4041 27.4971C17.866 26.984 18.6563 26.9424 19.1695 27.4042L23.5156 31.3157C23.6838 31.4671 23.9419 31.4566 24.0973 31.2921L32.4245 22.4751C32.8985 21.9732 33.6896 21.9506 34.1915 22.4246Z" fill="#1683E2"/>
</svg>
