<svg width="40" height="40" viewBox="0 0 40 40" fill="none" xmlns="http://www.w3.org/2000/svg">
<path opacity="0.4" d="M6.66659 13.3334H3.33325V28.3334L10.518 31.9257C12.3694 32.8514 14.4109 33.3334 16.4808 33.3334H29.9999C31.8409 33.3334 33.3333 31.841 33.3333 30C33.3333 28.1591 31.8409 26.6667 29.9999 26.6667H27.3606C25.8081 26.6667 24.277 26.3053 22.8885 25.611L17.9866 23.16C18.3071 22.8649 18.5719 22.4988 18.7546 22.0724C19.4439 20.4641 18.7067 18.6009 17.1037 17.8996L6.66659 13.3334Z" fill="#1683E2"/>
<path d="M20.8765 14.0123L26.7716 21.3812C27.5722 22.382 29.0944 22.382 29.8951 21.3812L35.7901 14.0123C36.3575 13.3031 36.6667 12.4218 36.6667 11.5136V10.6667C36.6667 8.45755 34.8758 6.66669 32.6667 6.66669H31.7516C30.8968 6.66669 30.0771 7.00623 29.4727 7.61061C28.8435 8.23989 27.8232 8.23989 27.1939 7.61061C26.5895 7.00623 25.7698 6.66669 24.9151 6.66669H24C21.7909 6.66669 20 8.45755 20 10.6667V11.5136C20 12.4218 20.3091 13.3031 20.8765 14.0123Z" fill="#1683E2"/>
</svg>
