<svg width="40" height="40" viewBox="0 0 40 40" fill="none" xmlns="http://www.w3.org/2000/svg">
<path opacity="0.4" d="M5 30L5 10C5 6.31813 7.98477 3.33336 11.6667 3.33336L23.3333 3.33336L35 15L35 30C35 33.6819 32.0152 36.6667 28.3333 36.6667L11.6667 36.6667C7.98477 36.6667 5 33.6819 5 30Z" fill="#1683E2"/>
<path d="M23.3333 8.33333L23.3333 3.33333L35 15L30 15C26.3181 15 23.3333 12.0152 23.3333 8.33333Z" fill="#1683E2"/>
<path fill-rule="evenodd" clip-rule="evenodd" d="M25.8232 19.0593C26.3427 19.5139 26.3954 20.3036 25.9408 20.8231L21.1576 26.2896C20.1298 27.4643 18.3594 27.6216 17.1405 26.6465L14.2192 24.3094C13.6801 23.8782 13.5927 23.0916 14.024 22.5525C14.4552 22.0134 15.2418 21.926 15.7809 22.3573L18.7023 24.6944C18.8764 24.8337 19.1293 24.8112 19.2761 24.6434L24.0593 19.1769C24.5139 18.6573 25.3036 18.6047 25.8232 19.0593Z" fill="#1683E2"/>
</svg>
