<svg width="40" height="40" viewBox="0 0 40 40" fill="none" xmlns="http://www.w3.org/2000/svg">
<path opacity="0.4" fill-rule="evenodd" clipRule="evenodd" d="M2.08325 10C2.08325 5.62775 5.62766 2.08334 9.99992 2.08334H12.5925C13.2829 2.08334 13.8425 2.64298 13.8425 3.33334C13.8425 4.02369 13.2829 4.58334 12.5925 4.58334H9.99992C7.00837 4.58334 4.58325 7.00846 4.58325 10V12.5926C4.58325 13.283 4.02361 13.8426 3.33325 13.8426C2.6429 13.8426 2.08325 13.283 2.08325 12.5926V10ZM26.1573 3.33334C26.1573 2.64298 26.717 2.08334 27.4073 2.08334H29.9999C34.3722 2.08334 37.9166 5.62775 37.9166 10V12.5926C37.9166 13.283 37.3569 13.8426 36.6666 13.8426C35.9762 13.8426 35.4166 13.283 35.4166 12.5926V10C35.4166 7.00846 32.9915 4.58334 29.9999 4.58334H27.4073C26.717 4.58334 26.1573 4.02369 26.1573 3.33334ZM3.33325 26.1574C4.02361 26.1574 4.58325 26.7171 4.58325 27.4074V30C4.58325 32.9915 7.00837 35.4167 9.99992 35.4167H12.5925C13.2829 35.4167 13.8425 35.9763 13.8425 36.6667C13.8425 37.357 13.2829 37.9167 12.5925 37.9167H9.99992C5.62766 37.9167 2.08325 34.3723 2.08325 30V27.4074C2.08325 26.7171 2.6429 26.1574 3.33325 26.1574ZM36.6666 26.1574C37.3569 26.1574 37.9166 26.7171 37.9166 27.4074V30C37.9166 34.3723 34.3722 37.9167 29.9999 37.9167H27.4073C26.717 37.9167 26.1573 37.357 26.1573 36.6667C26.1573 35.9763 26.717 35.4167 27.4073 35.4167H29.9999C32.9915 35.4167 35.4166 32.9915 35.4166 30V27.4074C35.4166 26.7171 35.9762 26.1574 36.6666 26.1574Z" fill="#1683E2"/>
<circle cx="19.9998" cy="20" r="8.33333" fill="#1683E2"/>
</svg>
