<svg width="40" height="40" viewBox="0 0 40 40" fill="none" xmlns="http://www.w3.org/2000/svg">
<path opacity="0.4" fill-rule="evenodd" clip-rule="evenodd" d="M18.75 3.33333C18.75 2.64297 19.3096 2.08333 20 2.08333C29.8951 2.08333 37.9167 10.1049 37.9167 20C37.9167 20.6904 37.357 21.25 36.6667 21.25C35.9763 21.25 35.4167 20.6904 35.4167 20C35.4167 11.4856 28.5144 4.58333 20 4.58333C19.3096 4.58333 18.75 4.02368 18.75 3.33333Z" fill="#1683E2"/>
<path fill-rule="evenodd" clip-rule="evenodd" d="M15.2221 3.97895C15.4684 4.62386 15.1453 5.34636 14.5004 5.59269C14.2305 5.69577 13.9643 5.80623 13.7019 5.92382C13.0719 6.20616 12.3323 5.92434 12.05 5.29436C11.7676 4.66438 12.0495 3.9248 12.6794 3.64246C12.9846 3.50568 13.2943 3.37719 13.6083 3.25726C14.2532 3.01092 14.9757 3.33404 15.2221 3.97895ZM9.45815 7.02993C9.93251 7.5315 9.91045 8.32265 9.40887 8.79701C9.19928 8.99522 8.99525 9.19926 8.79703 9.40885C8.32268 9.91042 7.53153 9.93248 7.02995 9.45812C6.52838 8.98376 6.50632 8.19262 6.98068 7.69104C7.21082 7.44769 7.44772 7.2108 7.69107 6.98065C8.19264 6.50629 8.98379 6.52835 9.45815 7.02993ZM5.29438 12.05C5.92437 12.3323 6.20619 13.0719 5.92385 13.7019C5.80626 13.9642 5.6958 14.2305 5.59272 14.5004C5.34638 15.1453 4.62389 15.4684 3.97897 15.222C3.33406 14.9757 3.01095 14.2532 3.25729 13.6083C3.37722 13.2943 3.50571 12.9846 3.64248 12.6794C3.92482 12.0494 4.6644 11.7676 5.29438 12.05ZM3.37422 18.2817C4.06431 18.3007 4.60829 18.8756 4.58924 19.5657C4.58526 19.7099 4.58325 19.8546 4.58325 19.9999C4.58325 20.1451 4.58526 20.2899 4.58924 20.4341C4.60829 21.1242 4.06431 21.6991 3.37422 21.7181C2.68412 21.7372 2.10925 21.1932 2.09019 20.5031C2.08557 20.3359 2.08325 20.1681 2.08325 19.9999C2.08325 19.8316 2.08557 19.6639 2.09019 19.4967C2.10925 18.8066 2.68412 18.2626 3.37422 18.2817ZM3.97897 24.7777C4.62389 24.5314 5.34638 24.8545 5.59272 25.4994C5.6958 25.7693 5.80626 26.0356 5.92385 26.2979C6.20619 26.9279 5.92437 27.6675 5.29439 27.9498C4.6644 28.2322 3.92482 27.9504 3.64248 27.3204C3.50571 27.0152 3.37722 26.7055 3.25729 26.3915C3.01095 25.7466 3.33406 25.0241 3.97897 24.7777ZM36.0209 24.7777C36.6658 25.0241 36.9889 25.7466 36.7426 26.3915C36.6226 26.7055 36.4941 27.0152 36.3574 27.3204C36.075 27.9504 35.3354 28.2322 34.7055 27.9498C34.0755 27.6675 33.7937 26.9279 34.076 26.2979C34.1936 26.0356 34.304 25.7693 34.4071 25.4994C34.6535 24.8545 35.376 24.5314 36.0209 24.7777ZM7.02995 30.5417C7.53153 30.0673 8.32268 30.0894 8.79703 30.5909C8.99525 30.8005 9.19929 31.0046 9.40887 31.2028C9.91045 31.6771 9.93251 32.4683 9.45815 32.9699C8.98379 33.4714 8.19264 33.4935 7.69107 33.0191C7.44772 32.789 7.21082 32.5521 6.98068 32.3087C6.50632 31.8072 6.52838 31.016 7.02995 30.5417ZM32.9699 30.5417C33.4715 31.016 33.4935 31.8072 33.0192 32.3087C32.789 32.5521 32.5521 32.789 32.3088 33.0191C31.8072 33.4935 31.0161 33.4714 30.5417 32.9699C30.0673 32.4683 30.0894 31.6771 30.591 31.2028C30.8006 31.0046 31.0046 30.8005 31.2028 30.5909C31.6772 30.0894 32.4683 30.0673 32.9699 30.5417ZM27.9499 34.7054C28.2322 35.3354 27.9504 36.075 27.3204 36.3573C27.0152 36.4941 26.7055 36.6226 26.3915 36.7425C25.7466 36.9889 25.0241 36.6657 24.7778 36.0208C24.5314 35.3759 24.8545 34.6534 25.4995 34.4071C25.7693 34.304 26.0356 34.1936 26.298 34.076C26.9279 33.7936 27.6675 34.0754 27.9499 34.7054ZM12.05 34.7054C12.3323 34.0754 13.0719 33.7936 13.7019 34.076C13.9643 34.1936 14.2305 34.304 14.5004 34.4071C15.1453 34.6534 15.4684 35.3759 15.2221 36.0208C14.9757 36.6657 14.2532 36.9889 13.6083 36.7425C13.2943 36.6226 12.9846 36.4941 12.6794 36.3573C12.0495 36.075 11.7676 35.3354 12.05 34.7054ZM18.2817 36.6256C18.3008 35.9355 18.8756 35.3915 19.5657 35.4106C19.7099 35.4146 19.8547 35.4166 19.9999 35.4166C20.1452 35.4166 20.2899 35.4146 20.4341 35.4106C21.1242 35.3915 21.6991 35.9355 21.7181 36.6256C21.7372 37.3157 21.1932 37.8906 20.5031 37.9096C20.3359 37.9142 20.1682 37.9166 19.9999 37.9166C19.8317 37.9166 19.6639 37.9142 19.4967 37.9096C18.8066 37.8906 18.2626 37.3157 18.2817 36.6256Z" fill="#1683E2"/>
<path fill-rule="evenodd" clip-rule="evenodd" d="M19.9998 8.75C19.3095 8.75 18.7498 9.30964 18.7498 10V17.5C18.7498 18.1904 19.3095 18.75 19.9998 18.75C20.6902 18.75 21.2498 18.1904 21.2498 17.5V10C21.2498 9.30964 20.6902 8.75 19.9998 8.75ZM27.9165 20C27.9165 19.3096 27.3569 18.75 26.6665 18.75H22.4998C21.8095 18.75 21.2498 19.3096 21.2498 20C21.2498 20.6904 21.8095 21.25 22.4998 21.25H26.6665C27.3569 21.25 27.9165 20.6904 27.9165 20Z" fill="#1683E2"/>
<path opacity="0.4" d="M23.3332 20C23.3332 21.8409 21.8408 23.3333 19.9998 23.3333C18.1589 23.3333 16.6665 21.8409 16.6665 20C16.6665 18.159 18.1589 16.6667 19.9998 16.6667C21.8408 16.6667 23.3332 18.159 23.3332 20Z" fill="#1683E2"/>
</svg>
