<svg width="40" height="40" viewBox="0 0 40 40" fill="none" xmlns="http://www.w3.org/2000/svg">
<path opacity="0.4" d="M17.2924 4.53672L8.96268 8.23881C6.55331 9.30964 4.96332 11.7077 5.11664 14.3399C5.71603 24.6302 8.72943 29.1605 16.5596 34.4616C18.634 35.8659 21.3682 35.8694 23.441 34.4628C31.2953 29.1328 34.2009 24.5385 34.853 14.3755C35.023 11.726 33.4304 9.30243 31.0042 8.22413L22.7076 4.53672C20.9838 3.7706 19.0161 3.7706 17.2924 4.53672Z" fill="#1683E2"/>
<path fill-rule="evenodd" clip-rule="evenodd" d="M25.8232 15.726C26.3427 16.1806 26.3954 16.9703 25.9408 17.4898L21.1576 22.9563C20.1298 24.131 18.3594 24.2883 17.1405 23.3132L14.2192 20.9761C13.6801 20.5449 13.5927 19.7582 14.024 19.2192C14.4552 18.6801 15.2418 18.5927 15.7809 19.024L18.7023 21.361C18.8764 21.5003 19.1293 21.4779 19.2761 21.3101L24.0593 15.8436C24.5139 15.324 25.3036 15.2714 25.8232 15.726Z" fill="#1683E2"/>
</svg>
