<svg width="40" height="40" viewBox="0 0 40 40" fill="none" xmlns="http://www.w3.org/2000/svg">
<path opacity="0.4" d="M34.1666 22.5C34.1666 30.324 27.824 36.6666 19.9999 36.6666C12.1759 36.6666 5.83325 30.324 5.83325 22.5C5.83325 14.6759 12.1759 8.33331 19.9999 8.33331C27.824 8.33331 34.1666 14.6759 34.1666 22.5Z" fill="#1683E2"/>
<path fill-rule="evenodd" clipRule="evenodd" d="M20.0001 4.58331C18.3829 4.58331 16.8201 4.80768 15.3403 5.22624C14.676 5.41412 13.9851 5.02792 13.7973 4.36362C13.6094 3.69932 13.9956 3.00849 14.6599 2.82061C16.3589 2.34006 18.1505 2.08331 20.0001 2.08331C21.8496 2.08331 23.6412 2.34006 25.3403 2.82061C26.0046 3.00849 26.3908 3.69932 26.2029 4.36362C26.015 5.02792 25.3242 5.41412 24.6599 5.22624C23.18 4.80768 21.6173 4.58331 20.0001 4.58331Z" fill="#1683E2"/>
<path d="M23.3332 23.3333C23.3332 25.1743 21.8408 26.6667 19.9998 26.6667C18.1589 26.6667 16.6665 25.1743 16.6665 23.3333C16.6665 21.4924 18.1589 20 19.9998 20C21.8408 20 23.3332 21.4924 23.3332 23.3333Z" fill="#1683E2"/>
<path fill-rule="evenodd" clipRule="evenodd" d="M19.9998 13.75C20.6902 13.75 21.2498 14.3096 21.2498 15V21.6667C21.2498 22.357 20.6902 22.9167 19.9998 22.9167C19.3095 22.9167 18.7498 22.357 18.7498 21.6667V15C18.7498 14.3096 19.3095 13.75 19.9998 13.75Z" fill="#1683E2"/>
</svg>
