<svg width="48" height="66" viewBox="0 0 48 66" fill="none" xmlns="http://www.w3.org/2000/svg"><g clipPath="url(#a)"><path d="M6.834 0C3.06 0 0 3.115 0 6.953v52.094C0 62.885 3.061 66 6.834 66h34.332C44.94 66 48 62.885 48 59.047V18.48L29.838 0H6.834Z" fill="#292A3C"/><path d="M29.842 0v11.74c0 3.72 2.967 6.74 6.623 6.74h11.539L29.842 0Z" fill="#202130"/><circle cx="31" cy="37.211" r="2" transform="rotate(90 31 37.211)" fill="#79768B"/><circle cx="24" cy="33" r="2" transform="rotate(90 24 33)" fill="#79768B"/><circle cx="17" cy="37.211" r="2" transform="rotate(90 17 37.211)" fill="#79768B"/></g><defs><clipPath id="a"><path fill="#fff" d="M0 0h48v66H0z"/></clipPath></defs></svg>