<svg width="48" height="66" viewBox="0 0 48 66" fill="none" xmlns="http://www.w3.org/2000/svg">
<g clip-path="url(#clip0_338_484)">
<path d="M6.83363 0C3.06147 0 0 3.11504 0 6.95322V59.0468C0 62.8849 3.06147 66 6.83363 66H41.1664C44.9385 66 48 62.8849 48 59.0468V18.48L29.8378 0H6.83363Z" fill="#292A3C"/>
<path d="M29.8418 0V11.7404C29.8418 15.4606 32.8092 18.48 36.4655 18.48H48.004L29.8418 0Z" fill="#202130"/>
</g>
<g clip-path="url(#clip1_338_484)">
<path class="circle-1" d="M24 31C25.1046 31 26 30.1046 26 29C26 27.8954 25.1046 27 24 27C22.8954 27 22 27.8954 22 29C22 30.1046 22.8954 31 24 31Z" fill="#79768B" fill-opacity="0.25"/>
<path class="circle-2" d="M24 47C25.1046 47 26 46.1046 26 45C26 43.8954 25.1046 43 24 43C22.8954 43 22 43.8954 22 45C22 46.1046 22.8954 47 24 47Z" fill="#79768B" fill-opacity="0.25"/>
<path class="circle-3" d="M29.1958 34C29.7481 34.9566 30.9713 35.2843 31.9279 34.732C32.8844 34.1798 33.2122 32.9566 32.6599 32C32.1076 31.0434 30.8844 30.7157 29.9279 31.2679C28.9713 31.8202 28.6435 33.0434 29.1958 34Z" fill="#79768B"/>
<path class="circle-4" d="M15.3399 42C15.8921 42.9566 17.1153 43.2843 18.0719 42.732C19.0285 42.1798 19.3562 40.9566 18.804 40C18.2517 39.0434 17.0285 38.7157 16.0719 39.2679C15.1153 39.8202 14.7876 41.0434 15.3399 42Z" fill="#79768B" fill-opacity="0.25"/>
<path class="circle-5" d="M29.1973 39.9991C28.645 40.9557 28.9727 42.1789 29.9293 42.7312C30.8859 43.2835 32.1091 42.9557 32.6614 41.9991C33.2137 41.0426 32.8859 39.8194 31.9293 39.2671C30.9727 38.7148 29.7496 39.0426 29.1973 39.9991Z" fill="#79768B" fill-opacity="0.25"/>
<path class="circle-6" d="M15.3399 32C14.7876 32.9566 15.1153 34.1798 16.0719 34.732C17.0285 35.2843 18.2517 34.9566 18.804 34C19.3562 33.0434 19.0285 31.8202 18.0719 31.2679C17.1153 30.7157 15.8921 31.0434 15.3399 32Z" fill="#79768B" fill-opacity="0.25"/>
</g>
<defs>
<clipPath id="clip0_338_484">
<rect width="48" height="66" fill="white"/>
</clipPath>
<clipPath id="clip1_338_484">
<rect width="20" height="20" fill="white" transform="translate(14 27)"/>
</clipPath>
</defs>
</svg>
