<svg width="20" height="20" viewBox="0 0 20 20" fill="none" xmlns="http://www.w3.org/2000/svg"><path d="M1.667 5.833A3.333 3.333 0 0 1 5 2.5h10a3.333 3.333 0 0 1 3.333 3.333v8.334A3.333 3.333 0 0 1 15 17.5H5a3.333 3.333 0 0 1-3.333-3.333V5.833Z" fill="#848097"/><path fill-rule="evenodd" clipRule="evenodd" d="M4.48 6.32a.625.625 0 0 1 .867-.173l3.15 2.1c.91.607 2.096.607 3.005 0l3.151-2.1a.625.625 0 0 1 .694 1.04l-3.151 2.1a3.958 3.958 0 0 1-4.392 0l-3.15-2.1a.625.625 0 0 1-.174-.867Z" fill="#0E0F1A"/></svg>