<svg width="133" height="259" viewBox="0 0 133 259" fill="none" xmlns="http://www.w3.org/2000/svg"><path stroke="url(#a)" d="M128.5 155V83"/><g filter="url(#b)"><circle cx="128.5" cy="155.5" r="2.5" fill="#1683E2"/></g><path stroke="url(#c)" stroke-width=".747" d="M3.865 182.76v-53.773"/><g filter="url(#d)"><circle cx="3.867" cy="183.133" r="1.867" fill="#1683E2"/></g><g opacity=".5"><g filter="url(#e)"><path fill="url(#f)" fill-opacity=".9" d="M35 34h50v152H35z"/></g><path fill="url(#g)" d="M35 79h50v107H35z"/></g><g filter="url(#h)"><g filter="url(#i)"><rect x="35" y="171" width="50" height="50" rx="12" fill="#050F22"/><rect x="35.5" y="171.5" width="49" height="49" rx="11.5" stroke="url(#j)"/></g><mask id="k" style="mask-type:luminance" maskUnits="userSpaceOnUse" x="46" y="184" width="29" height="25"><path d="M56.07 193.168c.156.436.26 1.372.328 1.882.25 1.936.382 3.961.71 5.868.21 1.213.505 2.5 1.19 3.193.338.342.96.679 1.656.436.515-.183.833-.609 1.063-1.119.75-1.659.95-5.6 1.088-7.665.181-2.689.308-5.373.68-8.042.246 1.124.422 9.329.456 10.404.074 2.357.196 7.947 1.18 9.68.3.53.814 1.115 1.705.996.755-.104 1.21-.674 1.49-1.223 1.009-1.991 1.22-7.121 1.371-9.503.079-1.213.235-3.877.456-4.961.083.188.196.822.264 1.074.245.891.691 2.001 1.421 2.575.583.456 1.029.703 1.822.847.333.059.887.124 1.205.015.647-.228.931-1.08.319-1.664-.294-.282-.618-.223-1.068-.277-2.327-.293-1.563-3.784-2.88-5.091-.417-.416-1.318-.728-1.99-.262-.504.346-.74.965-.92 1.733-.495 2.109-.657 7.19-.882 9.705-.064.728-.402 4.11-.75 4.551-.338-.624-.578-4.368-.627-5.264a212.703 212.703 0 0 1-.195-5.655c-.064-2.367-.079-9.012-1.059-10.646-.445-.743-1.268-.971-1.984-.535-.548.337-.847 1.09-1.048 1.887-.397 1.574-.534 3.516-.661 5.199-.132 1.788-.5 9.082-1.02 10.691-.514-1.055-.866-7.205-1.37-9.24-.24-.975-.574-1.877-1.353-2.199-.945-.391-1.802.223-2.2 1.134-.847 1.937-.856 6.061-1.591 8.022-.284.763-.485.892-.911.045-.133-.268-.23-.515-.353-.792-.715-1.615-1.563-2.902-3.743-3.199-.788-.109-1.44-.109-1.748.475-.348.659.112 1.307.675 1.421.324.065.706.025 1.073.104.916.198 1.392.793 1.779 1.669.235.535.46 1.109.74 1.58.269.455.665.896 1.2 1.124 1.297.549 2.39-.03 2.958-1.258.686-1.481.93-4.021 1.176-5.774.083-.589.181-1.372.348-1.916" fill="#fff"/></mask><g mask="url(#k)"><path d="M75.086 183.77H45.777v25.14h29.309v-25.14Z" fill="url(#l)"/></g></g><defs><linearGradient id="a" x1="127" y1="144.875" x2="149.993" y2="101.212" gradientUnits="userSpaceOnUse"><stop stop-color="#1683E2"/><stop offset="1" stop-opacity="0"/></linearGradient><linearGradient id="c" x1="2.238" y1="175.198" x2="16.425" y2="139.125" gradientUnits="userSpaceOnUse"><stop stop-color="#1683E2"/><stop offset="1" stop-opacity="0"/></linearGradient><linearGradient id="f" x1="63.5" y1="186" x2="63" y2="50" gradientUnits="userSpaceOnUse"><stop stop-color="#2499FF"/><stop offset="1" stop-color="#7124FF" stop-opacity="0"/></linearGradient><linearGradient id="g" x1="63.5" y1="186" x2="63.252" y2="90.263" gradientUnits="userSpaceOnUse"><stop stop-color="#2499FF"/><stop offset="1" stop-color="#7124FF" stop-opacity="0"/></linearGradient><linearGradient id="j" x1="56.177" y1="196.005" x2="84.507" y2="196.005" gradientUnits="userSpaceOnUse"><stop stop-color="#2499FF"/><stop offset="1" stop-color="#7124FF"/></linearGradient><linearGradient id="l" x1="58.191" y1="196.342" x2="74.797" y2="196.342" gradientUnits="userSpaceOnUse"><stop stop-color="#2499FF"/><stop offset="1" stop-color="#7124FF"/></linearGradient><filter id="b" x="124" y="151" width="9" height="9" filterUnits="userSpaceOnUse" color-interpolation-filters="sRGB"><feFlood flood-opacity="0" result="BackgroundImageFix"/><feBlend in="SourceGraphic" in2="BackgroundImageFix" result="shape"/><feGaussianBlur stdDeviation="1" result="effect1_foregroundBlur_528_1654"/></filter><filter id="d" x=".506" y="179.772" width="6.721" height="6.721" filterUnits="userSpaceOnUse" color-interpolation-filters="sRGB"><feFlood flood-opacity="0" result="BackgroundImageFix"/><feBlend in="SourceGraphic" in2="BackgroundImageFix" result="shape"/><feGaussianBlur stdDeviation=".747" result="effect1_foregroundBlur_528_1654"/></filter><filter id="e" x="1" y="0" width="118" height="220" filterUnits="userSpaceOnUse" color-interpolation-filters="sRGB"><feFlood flood-opacity="0" result="BackgroundImageFix"/><feBlend in="SourceGraphic" in2="BackgroundImageFix" result="shape"/><feGaussianBlur stdDeviation="17" result="effect1_foregroundBlur_528_1654"/></filter><filter id="h" x="1" y="141" width="118" height="118" filterUnits="userSpaceOnUse" color-interpolation-filters="sRGB"><feFlood flood-opacity="0" result="BackgroundImageFix"/><feColorMatrix in="SourceAlpha" values="0 0 0 0 0 0 0 0 0 0 0 0 0 0 0 0 0 0 127 0" result="hardAlpha"/><feOffset dy="4"/><feGaussianBlur stdDeviation="17"/><feComposite in2="hardAlpha" operator="out"/><feColorMatrix values="0 0 0 0 0 0 0 0 0 0 0 0 0 0 0 0 0 0 0.35 0"/><feBlend in2="BackgroundImageFix" result="effect1_dropShadow_528_1654"/><feBlend in="SourceGraphic" in2="effect1_dropShadow_528_1654" result="shape"/></filter><filter id="i" x="-5" y="131" width="130" height="130" filterUnits="userSpaceOnUse" color-interpolation-filters="sRGB"><feFlood flood-opacity="0" result="BackgroundImageFix"/><feGaussianBlur in="BackgroundImageFix" stdDeviation="20"/><feComposite in2="SourceAlpha" operator="in" result="effect1_backgroundBlur_528_1654"/><feBlend in="SourceGraphic" in2="effect1_backgroundBlur_528_1654" result="shape"/><feColorMatrix in="SourceAlpha" values="0 0 0 0 0 0 0 0 0 0 0 0 0 0 0 0 0 0 127 0" result="hardAlpha"/><feOffset/><feGaussianBlur stdDeviation="1.5"/><feComposite in2="hardAlpha" operator="arithmetic" k2="-1" k3="1"/><feColorMatrix values="0 0 0 0 0.0705882 0 0 0 0 0.415686 0 0 0 0 0.721569 0 0 0 1 0"/><feBlend in2="shape" result="effect2_innerShadow_528_1654"/></filter></defs></svg>