<svg width="1380" height="810" viewBox="0 0 1380 810" preserveAspectRatio="none" fill="none" xmlns="http://www.w3.org/2000/svg"><path d="M1380 770c0 22.091-17.91 40-40 40H40c-22.092 0-40-17.909-40-40V40C0 17.909 17.909 0 40 0h1300c22.09 0 40 17.909 40 40v730Z" fill="url(#a)" fill-opacity=".5"/><path d="M1379.5 770c0 21.815-17.68 39.5-39.5 39.5H40C18.185 809.5.5 791.815.5 770V40C.5 18.185 18.185.5 40 .5h1300c21.82 0 39.5 17.685 39.5 39.5v730Z" stroke="url(#b)" stroke-opacity=".7"/><defs><linearGradient id="a" x1="690" y1="810" x2="690" y2="0" gradientUnits="userSpaceOnUse"><stop stop-color="#10111D"/><stop offset=".886" stop-color="#030512" stop-opacity="0"/></linearGradient><linearGradient id="b" x1="459" y1="797.313" x2="348.171" y2="453.776" gradientUnits="userSpaceOnUse"><stop stop-color="#202230"/><stop offset="1" stop-color="#202129" stop-opacity="0"/></linearGradient></defs></svg>