<svg width="138" height="31" viewBox="0 0 138 31" fill="none" xmlns="http://www.w3.org/2000/svg">
<g clipPath="url(#clip0_466_96)">
<path d="M132.268 14.9841L134.805 11.2839H137.705L133.694 17.0662C134.533 18.1347 135.337 19.2033 136.104 20.2902C136.871 21.377 137.511 22.3967 138.001 23.3554H134.992C134.853 23.0684 134.678 22.7631 134.455 22.4211C134.237 22.0853 134.002 21.7312 133.748 21.3648C133.5 20.9984 133.241 20.6321 132.969 20.2779C132.697 19.9177 132.431 19.5758 132.171 19.2582C131.64 19.8872 131.114 20.5832 130.601 21.3404C130.088 22.1036 129.665 22.7753 129.326 23.3615H126.512C126.735 22.8974 127.013 22.4089 127.339 21.896C127.671 21.3831 128.022 20.858 128.396 20.3268C128.771 19.7895 129.163 19.2521 129.562 18.7209C129.961 18.1836 130.359 17.6768 130.746 17.1944L126.693 11.29H129.731L132.262 14.9902L132.268 14.9841ZM124.76 7.7546C124.76 8.27972 124.591 8.69492 124.258 9.00022C123.926 9.30552 123.528 9.46427 123.069 9.46427C122.609 9.46427 122.193 9.31162 121.86 9.00022C121.528 8.69492 121.359 8.27972 121.359 7.7546C121.359 7.22949 121.528 6.78986 121.86 6.48456C122.193 6.17926 122.597 6.02051 123.069 6.02051C123.54 6.02051 123.92 6.17316 124.258 6.48456C124.591 6.78986 124.76 7.21728 124.76 7.7546ZM124.464 23.3615H121.703V11.2839H124.464V23.3554V23.3615ZM111.996 8.10264L114.757 7.63859V11.2839H119.003V13.6163H114.757V18.5316C114.757 19.5025 114.908 20.1925 115.216 20.6077C115.518 21.0229 116.037 21.2305 116.768 21.2305C117.27 21.2305 117.717 21.1755 118.103 21.0717C118.49 20.9618 118.798 20.8641 119.027 20.7725L119.487 22.989C119.166 23.1294 118.75 23.2699 118.23 23.4164C117.711 23.563 117.101 23.6362 116.406 23.6362C115.554 23.6362 114.841 23.5202 114.268 23.2882C113.694 23.0562 113.241 22.7203 112.908 22.2868C112.576 21.8472 112.341 21.316 112.202 20.6931C112.063 20.0703 111.996 19.3559 111.996 18.5561V8.09654V8.10264ZM98.7738 11.6807C99.3054 11.5281 100 11.3815 100.852 11.2411C101.703 11.1007 102.646 11.0335 103.685 11.0335C104.657 11.0335 105.473 11.1678 106.131 11.4365C106.783 11.7052 107.309 12.0837 107.696 12.5661C108.082 13.0485 108.36 13.6347 108.517 14.3185C108.674 15.0024 108.759 15.7534 108.759 16.5716V23.3615H105.998V17.0113C105.998 16.364 105.956 15.8145 105.871 15.3626C105.787 14.9108 105.648 14.5383 105.461 14.2575C105.273 13.9705 105.014 13.7629 104.681 13.6347C104.355 13.5064 103.957 13.4393 103.485 13.4393C103.135 13.4393 102.773 13.4637 102.392 13.5064C102.012 13.5553 101.728 13.5919 101.546 13.6224V23.3676H98.7859V11.6746L98.7738 11.6807ZM90.5528 10.9908C91.4649 10.9908 92.2381 11.1068 92.8602 11.3388C93.4824 11.5708 93.9838 11.8944 94.3583 12.3097C94.7328 12.7249 94.9986 13.2317 95.1556 13.8239C95.3127 14.4162 95.3972 15.0696 95.3972 15.7717V23.0867C94.9684 23.1783 94.3281 23.2882 93.4703 23.4225C92.6126 23.5507 91.6401 23.6179 90.5588 23.6179C89.8461 23.6179 89.1877 23.5507 88.5957 23.4103C88.0037 23.2699 87.4963 23.0501 87.0795 22.7386C86.6628 22.4334 86.3366 22.0304 86.0949 21.5358C85.8594 21.0412 85.7386 20.4367 85.7386 19.7101C85.7386 18.9835 85.8715 18.4339 86.1372 17.9577C86.403 17.4814 86.7654 17.0906 87.2245 16.7914C87.6836 16.4922 88.2091 16.2785 88.8131 16.1442C89.4172 16.016 90.0454 15.9488 90.6978 15.9488C90.9998 15.9488 91.3199 15.9671 91.6582 16.0038C91.9904 16.0404 92.3529 16.1076 92.7334 16.1992V15.7351C92.7334 15.4115 92.6972 15.1062 92.6186 14.8131C92.5401 14.52 92.4072 14.2636 92.22 14.0376C92.0267 13.8117 91.779 13.6408 91.4649 13.5186C91.1508 13.3965 90.7582 13.3355 90.287 13.3355C89.6467 13.3355 89.0608 13.3843 88.5292 13.4759C87.9977 13.5675 87.5628 13.6774 87.2245 13.7995L86.8802 11.5342C87.2306 11.4121 87.7379 11.29 88.4084 11.1678C89.0789 11.0457 89.7917 10.9847 90.5528 10.9847V10.9908ZM90.7823 21.4014C91.634 21.4014 92.2804 21.3526 92.7213 21.261V18.1653C92.5703 18.1164 92.3468 18.0737 92.0569 18.0248C91.7669 17.976 91.4468 17.9577 91.0964 17.9577C90.7944 17.9577 90.4864 17.9821 90.1722 18.0248C89.8581 18.0737 89.5803 18.1531 89.3266 18.2813C89.0729 18.4034 88.8736 18.5805 88.7225 18.8003C88.5715 19.0262 88.493 19.3071 88.493 19.6429C88.493 20.3024 88.6984 20.7603 89.1091 21.0168C89.5199 21.2732 90.0756 21.3953 90.7763 21.3953L90.7823 21.4014ZM73.6335 17.0174C73.6335 15.7534 73.4765 14.8436 73.1624 14.2819C72.8483 13.7201 72.2684 13.4393 71.4167 13.4393C71.1146 13.4393 70.7764 13.4637 70.414 13.5064C70.0515 13.5553 69.7737 13.5919 69.5925 13.6224V23.3676H66.832V11.6746C67.3635 11.522 68.0642 11.3754 68.922 11.235C69.7797 11.0946 70.6918 11.0274 71.6522 11.0274C72.4737 11.0274 73.1503 11.1373 73.6758 11.351C74.2013 11.5647 74.6362 11.8517 74.9866 12.2059C75.1557 12.0837 75.3671 11.9494 75.6269 11.8151C75.8866 11.6746 76.1765 11.5525 76.4967 11.4365C76.8168 11.3205 77.1551 11.2228 77.5115 11.1495C77.8679 11.0701 78.2303 11.0335 78.5988 11.0335C79.529 11.0335 80.2901 11.1678 80.8941 11.4365C81.4982 11.7052 81.9693 12.0837 82.3076 12.5661C82.6519 13.0485 82.8875 13.6347 83.0143 14.3185C83.1412 15.0024 83.2076 15.7534 83.2076 16.5716V23.3615H80.4471V17.0113C80.4471 15.7473 80.2961 14.8375 79.9881 14.2758C79.686 13.714 79.1001 13.4332 78.2303 13.4332C77.7893 13.4332 77.3725 13.5064 76.9739 13.653C76.5752 13.7995 76.2792 13.9399 76.0859 14.0804C76.2067 14.4651 76.2913 14.8742 76.3396 15.3016C76.388 15.7351 76.4061 16.1931 76.4061 16.6876V23.3615H73.6456V17.0113L73.6335 17.0174ZM61.1419 16.1381C61.1419 15.7534 61.0875 15.3871 60.9848 15.039C60.8761 14.691 60.7251 14.3918 60.5197 14.1414C60.3143 13.885 60.0606 13.6896 59.7647 13.5431C59.4687 13.3965 59.1123 13.3232 58.7015 13.3232C58.2908 13.3232 57.9042 13.4026 57.584 13.5675C57.2639 13.7262 56.9921 13.9399 56.7746 14.2025C56.5511 14.4651 56.382 14.7643 56.2612 15.1001C56.1404 15.4359 56.0558 15.784 56.0075 16.1381H61.1479H61.1419ZM53.1262 17.3837C53.1262 16.3213 53.2833 15.3932 53.5974 14.5933C53.9115 13.7934 54.3222 13.1279 54.8417 12.5966C55.3612 12.0654 55.9531 11.6685 56.6236 11.3938C57.2941 11.1251 57.9767 10.9908 58.6774 10.9908C60.3204 10.9908 61.607 11.5037 62.5251 12.5356C63.4433 13.5675 63.9084 15.1062 63.9084 17.1517C63.9084 17.3043 63.9084 17.4814 63.8963 17.6707C63.8903 17.8661 63.8782 18.0371 63.8601 18.1897H55.9833C56.0619 19.1606 56.4001 19.9116 56.9981 20.4428C57.6022 20.974 58.472 21.2366 59.6136 21.2366C60.2841 21.2366 60.8942 21.1755 61.4499 21.0534C62.0057 20.9313 62.4406 20.797 62.7607 20.6626L63.1231 22.9463C62.9721 23.0256 62.7607 23.105 62.4949 23.1905C62.2291 23.276 61.9211 23.3492 61.5828 23.4225C61.2385 23.4897 60.8701 23.5507 60.4774 23.5935C60.0788 23.6423 59.6801 23.6607 59.2693 23.6607C58.2183 23.6607 57.3062 23.5019 56.527 23.1844C55.7478 22.8669 55.1135 22.4272 54.6061 21.8716C54.1048 21.3099 53.7302 20.6504 53.4886 19.8872C53.247 19.1239 53.1202 18.2935 53.1202 17.3837H53.1262ZM45.4307 21.1938C46.4636 21.1938 47.2186 21.0168 47.6898 20.6626C48.161 20.3085 48.3965 19.8078 48.3965 19.1606C48.3965 18.7759 48.318 18.4462 48.1549 18.1653C47.9979 17.8905 47.7683 17.6402 47.4723 17.4142C47.1764 17.1883 46.8139 16.9807 46.3851 16.7914C45.9562 16.596 45.473 16.4129 44.9233 16.2236C44.3736 16.0221 43.8481 15.8023 43.3346 15.5641C42.8272 15.326 42.3742 15.0268 41.9876 14.6727C41.601 14.3185 41.2869 13.8972 41.0513 13.4026C40.8158 12.908 40.695 12.3158 40.695 11.6258C40.695 10.1787 41.1903 9.04296 42.1809 8.21866C43.1715 7.39435 44.5186 6.98525 46.222 6.98525C47.2126 6.98525 48.0885 7.09516 48.8616 7.32108C49.6288 7.547 50.2328 7.78513 50.6798 8.04769L49.7919 10.4046C49.2724 10.1115 48.7046 9.89169 48.0885 9.73294C47.4723 9.58029 46.8381 9.50091 46.1797 9.50091C45.4005 9.50091 44.7964 9.65967 44.3615 9.98328C43.9266 10.3069 43.7091 10.7587 43.7091 11.3449C43.7091 11.6991 43.7816 12.0044 43.9266 12.2547C44.0716 12.5112 44.2769 12.7371 44.5427 12.9386C44.8085 13.1401 45.1226 13.3232 45.479 13.4942C45.8354 13.6652 46.228 13.8239 46.6569 13.9766C47.4059 14.2514 48.0703 14.5322 48.6563 14.8192C49.2422 15.1062 49.7375 15.442 50.1422 15.8328C50.5469 16.2236 50.855 16.6876 51.0664 17.2189C51.2778 17.7501 51.3866 18.3912 51.3866 19.1483C51.3866 20.5955 50.8792 21.7128 49.8704 22.5066C48.8556 23.3004 47.3757 23.6973 45.4307 23.6973C44.7783 23.6973 44.1803 23.6545 43.6367 23.5691C43.0991 23.4836 42.6158 23.3798 42.199 23.2577C41.7822 23.1355 41.4198 23.0073 41.1118 22.8791C40.8097 22.7509 40.5621 22.6287 40.3809 22.5188L41.2265 20.1436C41.6373 20.3756 42.193 20.6077 42.8937 20.8336C43.5944 21.0656 44.44 21.1816 45.4307 21.1816V21.1938Z" fill="white"/>
<mask id="mask0_466_96" style="mask-type:luminance" maskUnits="userSpaceOnUse" x="0" y="0" width="36" height="31">
<path d="M12.6902 11.5891C12.8835 12.1265 13.0103 13.2805 13.0949 13.9094C13.4029 16.2968 13.566 18.7942 13.9707 21.145C14.2305 22.6409 14.5929 24.2285 15.4386 25.0833C15.8554 25.5046 16.6225 25.9198 17.4802 25.6206C18.1145 25.3947 18.5071 24.8696 18.791 24.2407C19.7152 22.1952 19.9629 17.3348 20.132 14.7887C20.3555 11.4731 20.5125 8.16368 20.9716 4.87256C21.2736 6.25862 21.4911 16.3762 21.5334 17.7012C21.624 20.6076 21.775 27.5013 22.9891 29.6384C23.3576 30.2917 23.9918 31.0122 25.0912 30.8657C26.0214 30.7374 26.5832 30.0353 26.9275 29.3575C28.1718 26.9029 28.4316 20.5771 28.6188 17.6401C28.7155 16.1442 28.9088 12.8592 29.1806 11.522C29.2833 11.754 29.4222 12.5356 29.5068 12.847C29.8088 13.946 30.3585 15.3138 31.2585 16.0221C31.9773 16.5838 32.527 16.8891 33.5055 17.0662C33.9163 17.1395 34.5989 17.2188 34.9915 17.0845C35.7888 16.8036 36.1392 15.7534 35.3841 15.0329C35.0217 14.6849 34.623 14.7581 34.0673 14.691C31.1981 14.3307 32.1404 10.026 30.5155 8.41402C30.0021 7.90112 28.8906 7.51645 28.0631 8.09041C27.4409 8.51783 27.151 9.28107 26.9275 10.2275C26.3174 12.8286 26.1181 19.0934 25.8402 22.1952C25.7617 23.0928 25.3449 27.2631 24.916 27.8066C24.4992 27.0372 24.2033 22.4211 24.1429 21.3159C24.022 18.9957 23.9616 16.6693 23.9012 14.3429C23.8227 11.4243 23.8046 3.23006 22.5965 1.21509C22.0468 0.299192 21.032 0.0183176 20.1501 0.555643C19.4736 0.970849 19.1051 1.89896 18.8575 2.88202C18.3682 4.82371 18.1991 7.21725 18.042 9.29328C17.8789 11.4975 17.4259 20.4916 16.7856 22.4761C16.1513 21.1755 15.7164 13.5919 15.0943 11.0823C14.7983 9.87946 14.3875 8.76817 13.4271 8.37128C12.2613 7.88891 11.2042 8.64605 10.7149 9.76955C9.66994 12.157 9.65786 17.2433 8.7518 19.6612C8.40145 20.6015 8.15379 20.7603 7.62828 19.7162C7.46518 19.3864 7.34437 19.0812 7.19336 18.7392C6.31146 16.7487 5.26646 15.1611 2.57846 14.7948C1.60595 14.6604 0.802573 14.6604 0.422025 15.3809C-0.00684693 16.193 0.560955 16.9929 1.25561 17.1333C1.65428 17.2127 2.12543 17.1639 2.57846 17.2616C3.70803 17.5058 4.29395 18.2385 4.77115 19.3193C5.06109 19.9787 5.33895 20.687 5.68325 21.2671C6.01548 21.8288 6.50475 22.3723 7.16316 22.6531C8.76388 23.3309 10.1109 22.6165 10.8116 21.1022C11.6573 19.2765 11.9593 16.1442 12.2613 13.9827C12.364 13.2561 12.4848 12.2913 12.6902 11.6197" fill="white"/>
</mask>
<g mask="url(#mask0_466_96)">
<path d="M36.14 0H0V31H36.14V0Z" fill="url(#paint0_linear_466_96)"/>
</g>
</g>
<defs>
<linearGradient id="paint0_linear_466_96" x1="15.3065" y1="15.5031" x2="35.7836" y2="15.5031" gradientUnits="userSpaceOnUse">
<stop stop-color="#2499FF"/>
<stop offset="1" stop-color="#7124FF"/>
</linearGradient>
<clipPath id="clip0_466_96">
<rect width="138" height="31" fill="white"/>
</clipPath>
</defs>
</svg>
