<svg width="21" height="21" viewBox="0 0 21 21" fill="none" xmlns="http://www.w3.org/2000/svg"><path d="M12.25 5.25c0-.966.784-1.75 1.75-1.75h1.75c.966 0 1.75.784 1.75 1.75V7a1.75 1.75 0 0 1-1.75 1.75H14A1.75 1.75 0 0 1 12.25 7V5.25ZM3.5 14c0-.966.784-1.75 1.75-1.75H7c.966 0 1.75.784 1.75 1.75v1.75A1.75 1.75 0 0 1 7 17.5H5.25a1.75 1.75 0 0 1-1.75-1.75V14Zm0-8.75c0-.966.784-1.75 1.75-1.75H7c.966 0 1.75.784 1.75 1.75V7A1.75 1.75 0 0 1 7 8.75H5.25A1.75 1.75 0 0 1 3.5 7V5.25ZM12.25 14c0-.966.784-1.75 1.75-1.75h1.75c.966 0 1.75.784 1.75 1.75v1.75a1.75 1.75 0 0 1-1.75 1.75H14a1.75 1.75 0 0 1-1.75-1.75V14Z" stroke="#1683E2"/></svg>