<svg width="21" height="21" viewBox="0 0 21 21" fill="none" xmlns="http://www.w3.org/2000/svg"><path d="M4.757 10.228a6 6 0 0 1 5.693-4.103h.1a6 6 0 0 1 5.692 4.103l.375 1.125c1.296 3.885-1.596 7.897-5.692 7.897h-.85c-4.096 0-6.988-4.012-5.693-7.897l.375-1.125Z" stroke="#79768B" strokeLinejoin="round"/><path d="M12.325 6.125h-3.65L7.449 4.719c-1.202-1.379.2-3.439 1.955-2.873l.812.262c.184.06.384.06.569 0l.811-.262c1.755-.566 3.157 1.494 1.955 2.873l-1.226 1.406Z" stroke="#79768B" strokeLinejoin="round"/><path d="M7.875 14.875c1.973 1.15 3.13 1.176 5.25 0" stroke="#79768B" strokeLinecap="round"/></svg>