<svg width="397" height="332" viewBox="0 0 397 332" fill="none" xmlns="http://www.w3.org/2000/svg"><g opacity=".25" fill="#1683E2"><path d="m233.156 65.798.234-2.776-.082.88-.242 2.764.09-.868Zm-8.739 32.462.41-2.692-.245 1.213-.397 2.684.232-1.204Zm1.008 25.114.464-2.55-.254 1.395-.477 2.558.267-1.403Zm-1.588-51.007.321-2.778-.206.994-.329 2.765.214-.98Zm-8.342 56.406.548-2.443-.371 1.432-.566 2.473.389-1.462Zm17.033-89.085.172-2.79-.041.608-.201 2.773.07-.592Zm-17.882 64.225.478-2.611-.358 1.283-.491 2.62.371-1.292Zm-.561-24.935.424-2.754-.337 1.094-.427 2.72.34-1.06Zm9.424-32.328.256-2.824-.169.741-.281 2.788.194-.704Zm-17.855 86.567.599-2.334-.488 1.471-.637 2.358.526-1.495Zm-.831-24.324.555-2.519-.494 1.351-.554 2.518.493-1.35Zm9.329-55.79.363-2.822-.301.842-.367 2.788.305-.808Zm-9.825 31.379.505-2.681-.472 1.16-.492 2.674.459-1.153Zm27.84-70.367.097-2.742-.009.323-.166 2.716.078-.297Zm-8.717 7.163.205-2.793-.137.456-.242 2.763.174-.426Zm-16.121 134.517.639-2.13-.474 1.55-.698 2.149.533-1.569Zm-2.941-96.268.442-2.782-.432.941-.437 2.762.427-.92Zm10.035-31.634.29-2.829-.253.582-.321 2.778.284-.531Zm-19.875 61.47.577-2.567-.606 1.227-.556 2.572.585-1.232Zm.653 23.536.614-2.396-.619 1.376-.618 2.417.623-1.397Zm.944 23.548.645-2.204-.601 1.488-.683 2.229.639-1.513Zm1.655 22.519.668-1.972-.573 1.56-.74 1.999.645-1.587Zm7.229-124.651.385-2.817-.397.69-.387 2.783.399-.656Zm26.968-44.709.057-2.665.019.059-.143 2.613.067-.007Zm-37.159 75.083.523-2.71-.564 1.041-.509 2.702.55-1.033Zm28.908-68.301.15-2.741-.104.17-.216 2.695.17-.124Zm-38.43 120.771.659-2.266-.735 1.414-.665 2.287.741-1.435Zm-.582-23.28.627-2.459-.727 1.286-.62 2.471.72-1.299Zm1.78 45.998.682-2.034-.709 1.486-.724 2.078.751-1.53Zm8.978-99.65.467-2.798-.525.823-.457 2.757.515-.782Zm19.603-37.16.218-2.801-.199.3-.291 2.742.272-.241ZM184.89 70.03l.578-2.622-.698 1.109-.566 2.613.686-1.1Zm3.649 91.464.696-1.814-.664 1.529-.76 1.853.728-1.568Zm17.49-151.875.323-2.832-.327.435-.35 2.76.354-.363Zm-30.14 110.648.688-2.108-.835 1.424-.694 2.129.841-1.445ZM185.915 45.6l.54-2.74-.651.903-.522 2.71.633-.874Zm-10.533 51.675.661-2.32-.845 1.323-.653 2.333.837-1.337Zm2.156 44.686.703-1.888-.808 1.495-.741 1.912.846-1.519Zm19.216-126.153.409-2.834-.463.556-.416 2.766.47-.488Zm27.485-43.181.106-2.643-.043-.097-.212 2.586.149.154ZM175.471 74.05l.649-2.508-.832 1.176-.617 2.504.8-1.172Zm4.649 88.419.709-1.68-.751 1.53-.776 1.687.818-1.537Zm-4.334-111.31.596-2.65-.791.99-.57 2.634.765-.974Zm40.215-71.953.187-2.711-.146.02-.272 2.66.231.03Zm-28.7 42.425.5-2.802-.607.663-.478 2.753.585-.614Zm19.986-35.847.268-2.78-.274.154-.328 2.712.334-.086Zm-41.592 115.167.702-2.17-.957 1.342-.687 2.195.942-1.367Zm1.25 21.591.709-1.962-.935 1.434-.714 1.983.94-1.455Zm2.309 20.468.703-1.747-.883 1.489-.749 1.758.929-1.5Zm-3.16-65.267.675-2.382-.942 1.226-.655 2.387.922-1.23Zm32.28-85.698.36-2.802-.39.28-.398 2.738.428-.216Zm-26.513 171.458.697-1.532-.821 1.504-.776 1.545.9-1.517Zm5.943-136.514.573-2.742-.738.763-.523 2.71.688-.731ZM166.567 55.16l.646-2.54-.904 1.06-.613 2.538.871-1.058Zm22.5-56.976.446-2.804-.538.408-.444 2.75.536-.354Zm-32.232 105.149.69-2.021-1.037 1.356-.695 2.041 1.042-1.376Zm3.604 41.765.699-1.585-.952 1.462-.757 1.605 1.01-1.482Zm-4.216-63.351.704-2.224-1.067 1.252-.655 2.246 1.018-1.274Zm2.58 41.932.705-1.801-1.01 1.428-.722 1.829 1.027-1.456Zm5.018 40.756.685-1.383-.878 1.469-.777 1.405.97-1.491Zm4.218-132.291.628-2.653-.869.863-.571 2.634.812-.844Zm11.619-28.182.508-2.789-.654.534-.506 2.735.652-.48ZM157.74 58.438l.693-2.41-1.026 1.12-.639 2.411.972-1.121Zm-7.797 67.481.693-1.652-1.092 1.409-.723 1.688 1.122-1.445Zm2.768 19.793.691-1.457-1.022 1.435-.737 1.468 1.068-1.446Zm3.724 18.927.664-1.246-.935 1.433-.756 1.269 1.027-1.456Zm-7.643-59.984.719-1.863-1.144 1.353-.695 1.901 1.12-1.391ZM191.425-24.63l.387-2.784-.435.15-.435 2.708.483-.073ZM170.519 9.077l.586-2.75-.789.654-.551 2.693.754-.597Zm-11.431 27.075.659-2.548-.983.934-.605 2.55.929-.936Zm-10.863 47.242.712-2.07-1.138 1.278-.688 2.108 1.114-1.316Zm.094-21.304.701-2.258-1.131 1.15-.664 2.287 1.094-1.18Zm34.029-80.832.462-2.778-.571.27-.481 2.72.59-.212Zm-33.114 183.627.649-1.13-.979 1.391-.728 1.145 1.058-1.406Zm-3.549-19.266.666-1.3-1.066 1.392-.725 1.319 1.125-1.411Zm15.17-131.45.642-2.661-.929.741-.578 2.621.865-.701Zm-18.153 111.987.68-1.503-1.142 1.387-.718 1.526 1.18-1.41Zm6.618-85.641.697-2.43-1.11 1.013-.623 2.438 1.036-1.02Zm-8.825 65.815.694-1.706-1.186 1.344-.703 1.747 1.195-1.385Zm32.341-119.316.536-2.772-.699.403-.531 2.698.694-.33Zm-33.432 98.878.72-1.916-1.246 1.275-.676 1.96 1.202-1.319Zm3.212 78.733.633-1.014-1.016 1.36-.708 1.009 1.091-1.355Zm-2.664-100.128.722-2.112-1.235 1.18-.665 2.147 1.178-1.215Zm-1.111 81.092.638-1.177-1.104 1.363-.709 1.203 1.175-1.389Zm-3.58-18.753.66-1.367-1.198 1.351-.69 1.404 1.228-1.388Zm16.592-108.432.684-2.564-1.047.833-.613 2.537.976-.806Zm11.99-26.296.61-2.712-.844.511-.554 2.66.788-.46Zm-30.95 115.179.669-1.549-1.255 1.317-.683 1.61 1.269-1.378Zm-1.881-19.448.695-1.76-1.299 1.274-.664 1.81 1.268-1.324Zm10.147-44.587.71-2.298-1.206 1.057-.641 2.325 1.137-1.084Zm-4.415 120.504.597-.904-1.048 1.311-.684.905 1.135-1.312Zm-4.866-17.823.622-1.061-1.155 1.308-.673 1.092 1.206-1.339Zm22.6-148.903.649-2.65-.954.617-.598 2.617.903-.585ZM128.3 127.126l.627-1.222-1.222 1.313-.682 1.275 1.277-1.366Zm3.204-60.295.709-1.962-1.314 1.195-.657 2.018 1.262-1.25Zm11.183-44.424.71-2.44-1.169.892-.614 2.45 1.073-.902Zm-12.06 141.074.566-.813-1.059 1.264-.653.815 1.146-1.266Zm1.353-116.923.718-2.145-1.311 1.087-.641 2.184 1.234-1.126Zm-5.505 60.591.648-1.413-1.304 1.295-.658 1.454 1.314-1.336Zm-.846 38.522.586-.95-1.172 1.282-.644.969 1.23-1.301Zm-1.816-57.021.67-1.604-1.349 1.252-.664 1.67 1.343-1.319Zm-2.283 38.735.599-1.099-1.254 1.263-.654 1.151 1.309-1.315ZM145.456 1.4l.671-2.556-1.072.708-.614 2.538 1.015-.69Zm-22.282 67.533.697-1.813-1.381 1.2-.644 1.87 1.328-1.257Zm10.729-43.098.722-2.306-1.257.947-.62 2.33 1.155-.971Zm-8.565 136.694.534-.723-1.07 1.218-.621.725 1.157-1.22Zm32.76-186.581.626-2.687-.874.407-.578 2.622.826-.342ZM119.523 107.68l.621-1.289-1.341 1.265-.643 1.338 1.363-1.314Zm.921 36.867.554-.859-1.19 1.223-.613.879 1.249-1.243Zm4.009-96.127.706-1.995-1.378 1.094-.633 2.055 1.305-1.154Zm-7.055 40.406.65-1.466-1.411 1.238-.631 1.525 1.392-1.297Zm-1.181 37.568.575-.996-1.285 1.213-.618 1.04 1.328-1.257Zm4.617 36.349-.691.839 1.119-1.196.77-.854-1.198 1.211Zm27.904-181.894.665-2.623-.984.511-.61 2.571.929-.46ZM136.746 5.258l.71-2.439-1.2.788-.622 2.437 1.112-.786ZM115.085 143.85l.523-.769-1.201 1.177-.582.789 1.26-1.197Zm10.483-115.134.723-2.165-1.341.983-.646 2.204 1.264-1.022Zm-8.61 40.57.671-1.657-1.429 1.18-.637 1.74 1.395-1.263Zm-3.117 37.882.591-1.165-1.364 1.227-.614 1.214 1.387-1.276Zm3.807 56.514-.774.874 1.187-1.256.849-.868-1.262 1.25Zm-6.84-37.954.543-.905-1.301 1.187-.594.937 1.352-1.219Zm-.413-36.144.609-1.335-1.427 1.213-.61 1.389 1.428-1.267Zm29.411-104.332.7-2.54-1.111.592-.608 2.517 1.019-.57Zm-23.189 65.102.694-1.847-1.437 1.113-.633 1.914 1.376-1.18Zm-6.231 92.95-.627.799 1.255-1.175.666-.824-1.294 1.2Zm2.811 22.589-.841.88 1.258-1.283.924-.862-1.341 1.265ZM128.474 8.577l.715-2.32-1.288.844-.633 2.338 1.206-.862Zm-21.281 99.073.564-1.042-1.397 1.176-.577 1.104 1.41-1.238Zm2.518-37.207.639-1.512-1.471 1.17-.612 1.583 1.444-1.24Zm8.465-39.649.703-2.029-1.426 1.018-.617 2.081 1.34-1.07Zm-11.665 93.483.507-.794-1.312 1.141-.55.839 1.355-1.186Zm-.694 19.335-.666.823 1.327-1.203.732-.83-1.393 1.21Zm25.322-154.406.71-2.44-1.217.676-.61 2.43 1.117-.666ZM108.86 52.131l.661-1.702-1.49 1.11-.613 1.78 1.442-1.188Zm-3.719 36.867.601-1.207-1.471 1.17-.587 1.286 1.457-1.25Zm14.522-77.118.728-2.186-1.384.886-.63 2.23 1.286-.93Zm-18.508 95.817.54-.939-1.412 1.151-.542.992 1.414-1.204Zm1.193-36.058.618-1.376-1.507 1.14-.584 1.46 1.473-1.224Zm-2.715 53.088-.503.774 1.354-1.131.553-.806-1.404 1.163Zm1.234 19.289-.731.83 1.431-1.233.77-.853-1.47 1.256Zm9.463-111.052.703-1.888-1.497 1.044-.597 1.945 1.391-1.101Zm-11.412 56.32.552-1.088-1.474 1.137-.558 1.162 1.48-1.211Zm23.861-96.563.714-2.319-1.297.744-.62 2.33 1.203-.755ZM96.808 106.559l.5-.861-1.41 1.097-.523.91 1.433-1.146Zm6.067-53.903.648-1.553-1.544 1.11-.579 1.634 1.475-1.19Zm-8.558 71.189-.54.797 1.458-1.161.59-.83-1.508 1.194Zm2.08 19.905-.786.829 1.523-1.256.845-.847-1.582 1.274Zm.249-72.063.582-1.265-1.536 1.122-.555 1.336 1.509-1.193Zm16.118-57.702.72-2.058-1.46.934-.601 2.106 1.341-.982Zm13.9-40.095.726-2.413-1.227.575-.625 2.404 1.126-.566Zm-32.52 114.7.529-.984-1.498 1.098-.515 1.064 1.484-1.177Zm-3.566 17.007-.398.744 1.452-1.088.425-.813-1.479 1.157Zm13.438-71.479.67-1.744-1.55 1.043-.589 1.817 1.469-1.116ZM115.295-4.42l.732-2.206-1.399.807-.609 2.235 1.276-.835ZM96.422 53.475l.612-1.442-1.573 1.092-.564 1.519 1.525-1.169Zm-6.146 68.034-.581.788 1.563-1.192.624-.833-1.606 1.237Zm1.879 21.637-.852.835 1.607-1.29.919-.841-1.674 1.296Zm12.909-126.872.687-1.913-1.519.952-.594 1.978 1.426-1.017Zm-13.29 54.957.554-1.141-1.552 1.097-.519 1.225 1.517-1.18Zm-2.97 17.198.477-.9L87.8 88.6l-.504.97 1.508-1.14Zm7.306-52.405.638-1.6-1.571 1.04-.561 1.692 1.495-1.132ZM118.979-22.7l.735-2.314-1.32.651-.62 2.33 1.205-.667ZM85.564 102.919l-.41.751 1.557-1.117.457-.817-1.604 1.183Zm-1.778 17.579-.627.799 1.675-1.209.67-.844-1.718 1.254Zm6.324-66.345.578-1.298-1.588 1.067-.536 1.395 1.545-1.164ZM107.587-1.72l.712-2.07-1.462.847-.601 2.106 1.351-.883ZM88.436 142.109l-.922.808 1.707-1.3.98-.827-1.765 1.319ZM86.013 71.44l.51-1.044-1.555 1.064-.496 1.122 1.541-1.143Zm12.032-53.393.667-1.777-1.557.977-.586 1.85 1.476-1.05ZM82.864 86.579l-.273.718 1.53-1.048.3-.788-1.557 1.118Zm7.554-49.93.608-1.476-1.604 1.042-.54 1.556 1.535-1.122Zm20.775-56.212.727-2.186-1.388.712-.604 2.214 1.265-.74ZM79.8 100.112l-.428.78 1.682-1.143.45-.83-1.704 1.193Zm3.796 41.874-1.012.777 1.82-1.318 1.058-.787-1.866 1.328Zm1.422-87.851.543-1.188-1.604 1.042-.5 1.284 1.561-1.138ZM100.226.604l.691-1.934-1.533.874-.578 2.003 1.42-.943ZM81.53 70.899l.478-.953-1.559 1.03-.463 1.033 1.543-1.11Zm-2.048 46.476-.648.795 1.775-1.22.71-.834-1.837 1.259Zm12.09-97.95.638-1.653-1.602.988-.545 1.718 1.51-1.053ZM76.721 83.338l-.277.739 1.655-1.073.288-.834-1.666 1.168Zm7.916-46.063.56-1.357-1.612 1.029-.512 1.433 1.564-1.105Zm19.019-54.034.712-2.07-1.463.76-.581 2.11 1.332-.8ZM73.482 96.928l-.436.768 1.802-1.148.463-.837-1.83 1.217Zm7.295-43.256.498-1.09-1.6 1.022-.475 1.18 1.577-1.112Zm-6.08 15.389-.147.693 1.607-1.008.15-.8-1.61 1.115Zm-1.541 46.018-.69.785 1.908-1.232.74-.817-1.959 1.264ZM94.442 2.097l.672-1.798-1.572.898-.55 1.88 1.45-.98ZM86.11 20.223l.606-1.51-1.632.97-.52 1.616 1.546-1.076Zm-5.772 16.89.544-1.241-1.628 1.004-.489 1.33 1.573-1.093Zm16.383-51.515.697-1.955-1.52.812-.577 2.003 1.4-.86Zm-20.334 67.74.467-.999-1.603.988-.444 1.09 1.58-1.08ZM71.85 78.524l-.262.764 1.767-1.09.28-.847-1.786 1.173ZM87.091 4.043l.63-1.666-1.604.901-.534 1.764 1.508-.999ZM67.23 92.839l-.44.788 1.934-1.161.468-.858-1.962 1.23Zm12.078-71.314.569-1.398-1.631.97-.506 1.5 1.568-1.072ZM68.9 64.458l-.125.73 1.712-1.038.135-.826-1.723 1.134Zm.262 46.279-.718.768 2.042-1.245.768-.8-2.092 1.277Zm6.161-73.407.5-1.143-1.631.97-.457 1.24 1.588-1.067Zm14.423-49.58.668-1.831-1.565.823-.554 1.9 1.45-.892ZM68.99 51.36l-.026.688 1.644-.979.017-.787-1.634 1.078ZM81.312 5.234l.606-1.563-1.63.916-.51 1.661 1.534-1.014ZM64.865 74.082l-.245.79 1.892-1.117.272-.86-1.919 1.187Zm-3.571 34.038-.75.717 2.178-1.224.8-.749-2.228 1.256Zm8.78-70.497.464-1.033-1.627.95-.433 1.137 1.596-1.054Zm5.492-16.186.533-1.287-1.64.957-.469 1.389 1.576-1.059ZM93.82-28.447l.697-1.954-1.493.742-.565 1.995 1.361-.783ZM60.83 87.924l-.427.78 2.068-1.174.455-.85-2.095 1.244Zm22.436-98.386.627-1.7-1.582.852-.539 1.785 1.494-.937ZM63.422 58.876l-.095.748 1.837-1.064.094-.835-1.835 1.151ZM76.545 5.93l.57-1.452-1.642.924-.482 1.538 1.554-1.01ZM63.888 45.615l.021.71 1.757-.996-.027-.83-1.751 1.116Zm7.032-23.91.496-1.176-1.643.924-.445 1.286 1.591-1.034Zm16.923-48.096.668-1.83-1.551.76-.546 1.913 1.429-.843ZM57.805 68.647l-.213.786 2.026-1.13.231-.868-2.044 1.212Zm6.017-33.878.085.67 1.675-.928-.118-.808-1.642 1.066Zm-8.552 68.978-.748.663 2.306-1.217.819-.69-2.377 1.244ZM77.931-9.18l.592-1.589-1.608.867-.502 1.674 1.519-.952ZM53.743 82.276l-.403.765 2.21-1.174.437-.822-2.244 1.231ZM71.614 6.588l.542-1.328-1.65.911-.459 1.435 1.567-1.018Zm-5.92 15.589.466-1.086-1.638.904-.415 1.195 1.587-1.013Zm-8.886 30.737-.046.77 1.957-1.069.05-.877-1.961 1.176ZM81.42-24.427l.632-1.72-1.568.79-.518 1.79 1.454-.86ZM72.81-8.121l.564-1.465-1.629.863-.478 1.57 1.544-.968ZM57.312 39.716l.067.753 1.881-1.022-.084-.865-1.864 1.134Zm-7.543 58.747-.776.592 2.458-1.171.805-.629-2.487 1.208ZM66.755 7.165l.498-1.23-1.658.9-.414 1.335 1.574-1.005ZM50.131 62.29l-.159.788 2.154-1.121.19-.878-2.185 1.212Zm9.044-34.03.155.697L61.11 28l-.176-.842-1.76 1.104Zm-.088-8.997.2.686 1.684-.915-.239-.803-1.645 1.032ZM75.404-22.77l.616-1.605-1.606.814-.487 1.699 1.477-.908ZM47.46 74.96l-.357.753 2.358-1.162.404-.818-2.405 1.227ZM68.977-7.569l.526-1.354-1.628.863-.455 1.468 1.557-.977ZM62.208 7.565l.454-1.132-1.633.883-.403 1.241 1.582-.992ZM50.06 45.925l.01.805 2.091-1.082-.008-.913-2.093 1.19Zm-5.612 46.558-.756.51 2.576-1.122.807-.542-2.627 1.154ZM70.606-21.561l.573-1.506-1.611.834-.471 1.584 1.51-.912ZM50.782 32.82l.148.77 1.994-1.038-.161-.904-1.981 1.172ZM63.837-6.71l.495-1.263-1.641.87-.411 1.37 1.557-.976ZM51.679 22.075l.22.744 1.884-.988-.253-.882-1.851 1.126Zm1.901-9.398.29.717 1.776-.937-.316-.842-1.75 1.062Zm-9.92 41.321-.077.807 2.316-1.117.107-.897-2.347 1.207ZM56.11 4.367l.313.668 1.674-.874-.359-.798-1.628 1.004Zm9.561-24.827.515-1.399-1.61.834-.44 1.493 1.535-.927ZM59.335-6.126l.45-1.165-1.615.855-.4 1.274 1.565-.964Zm-19.56 72.883-.285.727L42 66.368l.333-.791-2.558 1.18Zm-1.491 19.499-.745.415 2.708-1.081.791-.426-2.754 1.092Zm5.158-48.603.106.816 2.232-1.083-.111-.936-2.227 1.203Zm18.671-57.486.492-1.297-1.611.834-.408 1.403 1.527-.94ZM43.468 25.125l.227.811 2.119-1.064-.24-.944-2.106 1.197Zm.919-10.316.31.776 1.997-1.006-.33-.922-1.977 1.152Zm8.658-24.101.421.671 1.657-.845-.475-.814-1.603.988ZM49.87-2.236l.403.7 1.766-.896-.445-.85-1.725 1.046Zm-2.487 7.789.368.757 1.888-.955-.402-.894-1.854 1.092ZM32.407 79.25l-.709.303 2.843-1.007.73-.299-2.864 1.002Zm25.031-98.268.448-1.198-1.598.826-.376 1.312 1.526-.94ZM36.275 44.531l.031.81 2.464-1.105-.008-.912-2.487 1.207ZM31.697 56.72l-.18.695 2.674-1.078.208-.765-2.702 1.148Zm4.342-28.452.23.845 2.364-1.095-.235-.965-2.36 1.215Zm15.368-50.491.508.67 1.64-.817-.575-.804-1.573.951Zm-3.224 5.799.499.71 1.753-.888-.565-.845-1.687 1.023Zm-11.529 32.43.371.844 2.24-1.07-.371-.984-2.24 1.21Zm8.441-25.993.49.752 1.87-.927-.551-.907-1.809 1.082ZM39.25 5.803l.436.837 2.115-1.044-.45-.97-2.102 1.177Zm2.874-8.492.48.793 1.972-.99-.5-.938-1.952 1.135Zm-13.23 35.792.193.814 2.6-1.084-.16-.905-2.633 1.175Zm-3.907 10.445.006.684 2.814-1.024.037-.73-2.857 1.07Zm19.957-72.586.599.7 1.71-.843-.66-.857-1.649 1Zm-2.849 5.158.61.746 1.824-.915-.672-.902-1.762 1.07ZM28.352 17.28l.394.881 2.485-1.1-.379-.997-2.5 1.215Zm10.769-35.413.62.793 1.947-.974-.662-.944-1.905 1.125Zm-3.659 6.707.611.834 2.089-1.028-.653-.985-2.047 1.179ZM30.981 5.219l.51.898 2.365-1.096-.523-1.03-2.352 1.228Zm1.061-8.853.581.87 2.214-1.053-.59-1.024-2.205 1.207ZM21.15 19.38l.391.848 2.729-1.076-.364-.919-2.756 1.147Zm-4.936 7.878.255.687 2.941-.963-.212-.732-2.984 1.008Zm16.45-54.222.752.833 2.039-.996-.797-1.017-1.994 1.18ZM20.067 4.495l.613.92 2.606-1.104-.598-1.037-2.62 1.22ZM29.514-21.3l.76.9 2.172-1.063-.8-1.051-2.132 1.213Zm-3.915 6.832.754.92 2.31-1.096-.77-1.087-2.294 1.263Zm-1.472 7.805.729.937 2.444-1.11-.709-1.073-2.464 1.246Zm-10.11 9.077.705.899 2.812-1.058-.658-.964-2.859 1.123Zm6.332-29.188.976.994 2.386-1.144-.997-1.14-2.365 1.29Zm-7.188 15.873.902.987 2.676-1.132-.878-1.09-2.7 1.235Zm3.629-9.176.97 1.015 2.533-1.165-.977-1.135-2.527 1.285ZM7.554 4.792l.656.735 3.022-.89-.625-.772-3.053.927Zm-1.59-23.09 1.13.986 2.844-1.061-1.09-1.063-2.884 1.138Zm2.321-10.808 1.273 1.072 2.698-1.18-1.249-1.176-2.722 1.284Zm-6.658.436 1.36.93 2.952-.918-1.355-.95-2.957.938Z"/><path d="m157.367-25.217 3.002-1.036-.634-3.203-3.085 1.071.717 3.168Zm-.051 11.502 2.948-1.232-.866-3.462-3 1.264.918 3.43Zm16.139-6.86 2.944-1.07-.591-2.911-3.044 1.08.691 2.901Zm9.853-1.557 2.867-.969-.532-2.648-2.996.961.661 2.656Zm6.883-4.97 2.788-.814-.464-2.427-2.924.794.6 2.447Zm-8.649 32.776 2.858-1.546-.843-3.088-2.942 1.58.927 3.054Zm343.609 232.033 3.442.258.075-.135-3.411-.348-.106.225ZM522.017-24.4l3.312.922.277-2.539-3.331-.98-.258 2.597Zm-6.493 271.251 3.338.147-.108-.003-3.293-.245.063.101ZM192.594 9.205l2.841-1.517-.769-2.8-2.945 1.548.873 2.77Zm21.199-29.302 2.595-.728-.479-2.029-2.738.641.622 2.116ZM201.176 5.481l2.803-1.352-.672-2.561-2.936 1.365.805 2.548Zm4.631-7.351 2.763-1.134-.598-2.36-2.9 1.113.735 2.38Zm3.173-9.085 2.704-.92-.549-2.196-2.827.891.672 2.225Zm301.466-9.875 3.428.797.193-2.504-3.472-.84-.149 2.547Zm15.167 23.026 3.473.926.395-2.436-3.518-.969-.35 2.479ZM236.765-28.296l2.274-.367-.435-1.65-2.405.272.566 1.745Zm288.182 233.538 3.61.33.18-.501-3.576-.387-.214.558ZM193.469 33.15l2.643-2.029-1.17-3.13-2.669 2.044 1.196 3.115Zm40.428-51.424 2.391-.547-.478-1.747-2.521.452.608 1.842Zm271.152 242.492 3.364.078-.16-.2-3.346-.16.142.282Zm23.512-192.55 3.612.893.49-2.284-3.661-.915-.441 2.306Zm-30.035-46.785 3.522.667.113-2.436-3.58-.701-.055 2.47Zm16.212 229.728 3.49.193.013-.344-3.483-.267-.02.418ZM513.655 7.596l3.594.781.286-2.385-3.631-.81-.249 2.414ZM230.981-7.515l2.512-.747-.521-1.843-2.643.651.652 1.939Zm265.043 240.994 3.222-.01-.301-.058-3.203-.073.282.141Zm34.972-170.57 3.734.834.533-2.046-3.762-.852-.505 2.064ZM362.011 286.257l2.427-2.175-1.299 1.133-2.444 2.15 1.316-1.108ZM248.898-20.06l2.187-.367-.464-1.526-2.312.25.589 1.642ZM227.571 3.835l2.597-.977-.559-1.96-2.758.918.72 2.019Zm296.716 167.429 3.72.42.29-.888-3.703-.448-.307.916ZM486.705-9.414l3.594.499.019-2.36-3.663-.525.05 2.386ZM226.764 16.27l2.679-1.24-.652-2.079-2.811 1.199.784 2.12Zm36.402-38.751 1.966-.21-.447-1.36-2.075.065.556 1.505ZM247.259-8.868l2.303-.545-.49-1.598-2.43.43.617 1.713ZM501.74 13.43l3.652.62.18-2.3-3.71-.656-.122 2.336Zm21.157 124.014 3.788.5.347-1.276-3.784-.52-.351 1.296Zm-9.418 43.388 3.646.272.09-.728-3.615-.308-.121.764ZM460.262-23.9l3.534.235-.185-2.32-3.629-.246.28 2.33Zm56.615 59.914 3.712.743.35-2.196-3.752-.752-.31 2.206ZM224.426 28.43l2.72-1.512-.723-2.194-2.857 1.492.86 2.214Zm50.493-54.19 1.777-.092-.43-1.247-1.864-.049.517 1.388Zm228.354 216.471 3.517.123-.068-.558-3.515-.177.066.612ZM245.464 3.286l2.418-.757-.552-1.666-2.542.642.676 1.781Zm-32.406 47.68 2.647-2.19-1.061-2.705-2.711 2.23 1.125 2.665ZM476.8 219.422l3.052-.168-.456-.137-3.064.122.468.183Zm-7.515 9.108 2.859-.223-.544.006-2.89.172.575.045ZM281.369-25.713l1.434-1.005-.477-1.377-1.417 1.171.46 1.211ZM222.998 39.93l2.74-1.788-.823-2.325-2.848 1.786.931 2.328Zm298.269 63.086 3.811.592.385-1.636-3.832-.596-.364 1.64Zm-27.547 97.322 3.387.028-.217-.429-3.369-.057.199.458Zm-142.562 74.128 2.325-2.535-1.265.935-2.35 2.497 1.29-.897ZM220.489 48.81l2.702-2.048-.939-2.481-2.794 2.07 1.031 2.459Zm54.039-64.284 1.888-.196-.454-1.286-1.988.064.554 1.418Zm-14.243 2.882 2.087-.357-.479-1.41-2.208.22.6 1.546Zm259.06 81.08 3.792.674.389-1.938-3.82-.692-.361 1.956ZM474.979-2.464l3.639.346-.074-2.282-3.693-.348.128 2.284Zm9.869 212.39 3.22-.096-.341-.263-3.226.03.347.329ZM297.441-23.654l1.674-1.015-.515-1.44-1.679 1.176.52 1.28ZM504.657 44.65l3.761.57.22-2.096-3.803-.579-.178 2.106Zm7.097 101.884 3.739.336.168-1.11-3.734-.358-.173 1.132ZM489.867 20.595l3.698.469.061-2.21-3.752-.469-.007 2.21Zm-245.216-3.758 2.515-.996-.598-1.742-2.658.909.741 1.829Zm204.431-33.142 3.526.082-.27-2.23-3.606-.068.35 2.216ZM259.796-.41l2.212-.523-.519-1.474-2.338.407.645 1.59Zm13.309-4.343 1.995-.334-.478-1.323-2.116.197.599 1.46Zm236.586 116.618 3.795.426.224-1.5-3.82-.409-.199 1.483ZM293.208-17.046l1.575-1.005-.513-1.408-1.571 1.18.509 1.233Zm146.77 247.584 2.312-.391-.733.124-2.345.395.766-.128ZM313.695-23.527l1.959-.982-.558-1.537-1.969 1.164.568 1.355ZM507.378 77.107l3.801.492.233-1.823-3.835-.488-.199 1.819ZM283.789-9.849l1.809-.182-.46-1.211-1.896.042.547 1.351Zm179.79 15.277 3.61.188-.151-2.181-3.697-.187.238 2.18Zm37.507 150.445 3.644.185.014-.962-3.652-.198-.006.975ZM243.856 31.54l2.605-1.245-.667-1.823-2.736 1.205.798 1.863Zm201.491 190.742 2.502-.369-.71.021-2.502.37.71-.022ZM258.902 12.786l2.312-.728-.563-1.517-2.438.612.689 1.633ZM478.26 28.635l3.715.299-.042-2.091-3.769-.3.096 2.092ZM289.698-10.326l1.474-.996-.526-1.346-1.446 1.154.498 1.188Zm148.599 2.162 3.472-.06-.322-2.145-3.574.124.424 2.081ZM272.11 7.412l2.12-.5-.534-1.36-2.221.37.635 1.49Zm179.11 206.21 2.68-.34-.653-.084-2.688.327.661.097Zm39.775-47.855 3.531.062-.144-.792-3.539-.075.152.805Zm-76.786-186.49 3.296-.285-.436-2.073-3.402.369.542 1.989Zm-80.879-2.574 2.288-.906-.589-1.642-2.318 1.084.619 1.464Zm159.59 75.275 3.758.395.104-1.97-3.812-.398-.05 1.973Zm-183.8-67.924 1.831-.99-.552-1.47-1.848 1.159.569 1.301Zm148.705 220.555 2.844-.302-.571-.207-2.873.285.6.224Zm23.762-28.899 3.385-.059-.264-.646-3.393.046.272.659ZM244.757 47.739l2.663-1.547-.765-1.867-2.774 1.51.876 1.904Zm87.173 190.986 2.201-2.987-1.235.281-2.201 2.986 1.235-.28Zm140.998-53.172 3.222-.151-.397-.492-3.222.151.397.492ZM282.694 1.143l1.916-.32-.488-1.228-2.012.167.584 1.381Zm73.655-24.268 2.629-.785-.581-1.77-2.701.952.653 1.603ZM495.833 86.06l3.78.347.084-1.694-3.798-.318-.066 1.666ZM383.277-22.46l2.98-.563-.549-1.915-3.067.707.636 1.772ZM258.782 27.666l2.431-.96-.621-1.552-2.569.853.759 1.659Zm69.487-42.3 2.144-.94-.582-1.575-2.175 1.117.613 1.398Zm-22.919 6.4 1.723-.993-.553-1.417-1.72 1.167.55 1.243Zm147.239 22.179 3.582.03-.242-2.072-3.665.005.325 2.037ZM415.81 229.464l1.821-.472-.797.165-1.83.512.806-.205Zm-59.439 4.922 2.509-1.82-1.144.453-2.549 1.757 1.184-.39ZM324.517-5.487l2.009-.96-.577-1.51-2.03 1.15.598 1.32Zm174.061 125.7 3.745.262.065-1.329-3.765-.267-.045 1.334ZM404.879-11.5l3.204-.404-.481-1.975-3.293.514.57 1.865Zm59.815 206.506 3.046-.234-.497-.342-3.053.222.504.354ZM247.337 65.179l2.651-1.875-.848-1.886-2.779 1.867.976 1.894Zm24.327-43.97 2.237-.68-.584-1.38-2.35.555.697 1.505ZM302.384-.48l1.602-.987-.542-1.371-1.6 1.162.54 1.197ZM283.45 14.327l2.024-.458-.533-1.271-2.124.326.633 1.403Zm66.668-28.18 2.491-.839-.58-1.683-2.561 1.007.65 1.515Zm131.401 74.959 3.742.229-.032-1.85-3.787-.219.077 1.84ZM362.594 234.859l2.462-1.615-1.124.458-2.497 1.531 1.159-.374ZM467.032 36.913l3.665.136-.144-1.974-3.737-.108.216 1.946ZM300.075 7.145l1.491-.97-.536-1.305-1.495 1.132.54 1.143ZM423.817 214.56l2.128-.488-.764.02-2.145.516.781-.048ZM260.43 44.578l2.513-1.224-.682-1.566-2.656 1.137.825 1.653Zm158.817 177.683 1.962-.471-.778.081-1.996.529.812-.139Zm68.71-91.874 3.637.118-.075-1.188-3.663-.102.101 1.172ZM427.805-.118l3.405-.195-.392-2.03-3.486.263.473 1.962ZM292.778 7.011l1.819-.277-.503-1.167-1.906.138.59 1.306Zm54.819 224.691 2.512-2.069-1.172.382-2.543 2.019 1.203-.332Zm137.2-136.213 3.71.178-.036-1.548-3.748-.154.074 1.524ZM375.046-13.732l2.863-.666-.559-1.82-2.942.822.638 1.664Zm5.149 240.603 2.265-1.085-1.016.319-2.272 1.019 1.023-.253Zm-12.224 6.662 2.407-1.421-1.094.421-2.434 1.35 1.121-.35Zm6.047-2.928 2.336-1.254-1.051.377-2.363 1.182 1.078-.305ZM250.617 83.679l2.619-2.208-.969-1.88-2.71 2.23 1.06 1.858Zm33.487-54.869 2.133-.65-.579-1.26-2.241.505.687 1.405Zm193.879 111.574 3.529-.025-.22-1.027-3.542.034.233 1.018Zm-140.707 83.553 2.477-2.349-1.159.233-2.522 2.306 1.204-.19Zm-43.4-203.533 1.927-.415-.523-1.172-2.027.283.623 1.303ZM272.33 37.06l2.334-.917-.625-1.39-2.46.802.751 1.505ZM395.986-2.48l3.086-.507-.525-1.877-3.173.65.612 1.734Zm-52.182-2.965 2.346-.872-.606-1.614-2.389 1.057.649 1.429ZM456.453 46.62l3.603-.02-.239-1.843-3.667.059.303 1.804Zm-14.472-24.167 3.514-.105-.318-1.97-3.588.185.392 1.89ZM318.801 1.398l1.9-.962L320.119-1l-1.91 1.145.592 1.252Zm109.14 205.087 2.297-.471-.731-.07-2.315.499.749.042Zm-42.842 16.675 2.174-.976-.973.275-2.177.889.976-.188Zm54.128-33.972 2.652-.411-.659-.292-2.67.44.677.263Zm-48.791 29.883 2.08-.846-.927.21-2.073.772.92-.136ZM262.708 63.477l2.584-1.532-.77-1.565-2.698 1.463.884 1.634Zm132.887 151.475 1.977-.728-.858.15-1.988.682.869-.104Zm73.166-64.442 3.37-.138-.333-.867-3.387.166.35.839ZM367.895-4.27l2.715-.732-.578-1.738-2.787.901.65 1.57ZM418.16 9.25l3.318-.334-.449-1.925-3.395.436.526 1.823Zm-102.717.377 1.76-.962-.576-1.368-1.777 1.132.593 1.198Zm23.509-5.853 2.214-.912-.604-1.527-2.244 1.09.634 1.35Zm131.621 66.228 3.654.09-.147-1.726-3.71-.037.203 1.673Zm-10.286 90.535 3.195-.222-.432-.717-3.212.251.449.688Zm14.029-55.438 3.615.026-.169-1.394-3.645.01.199 1.358Zm-28.846 74.809 2.838-.369-.598-.419-2.856.397.616.391Zm-189.636-76.862 2.529-2.575-1.09-1.822-2.583 2.574 1.144 1.823Zm177.147 94.913 2.467-.454-.695-.181-2.505.477.733.158Zm-109.242 9.712 2.436-2.64-1.155-.07-2.473 2.61 1.192.1Zm128.692-37.388 3.019-.306-.519-.574-3.049.342.549.538ZM312.391 17.471l1.66-.953-.59-1.306-1.636 1.132.566 1.127Zm-37.574 37.81 2.432-1.155-.691-1.384-2.55 1.053.809 1.486Zm28.733-29.494 1.843-.38-.529-1.097-1.93.24.616 1.237Zm84.349-18.748 2.957-.602-.549-1.773-3.022.749.614 1.626Zm16.36 198.331 1.802-.53-.783-.038-1.82.612.801-.044ZM294.892 35.154l2.044-.594-.582-1.153-2.139.442.677 1.305Zm104.816 175.895 1.884-.653-.816.106-1.89.586.822-.039Zm32.439-179.022 3.407-.25-.393-1.835-3.479.33.465 1.755ZM361.275 5l2.575-.786-.601-1.634-2.626.959.652 1.461Zm-98.166 117.799 2.36-2.875-1.188-1.725-2.411 2.906 1.239 1.694Zm146.26-103.606 3.188-.429-.497-1.805-3.258.543.567 1.691ZM284.641 44.99l2.254-.85-.637-1.24-2.354.717.737 1.373Zm49.074-33.06 2.065-.925-.611-1.452-2.087 1.115.633 1.262Zm126.562 67.865 3.56-.062-.26-1.567-3.614.115.314 1.514Zm-52.721 118.178 1.948-.551-.769-.1-1.961.613.782.038Zm56.9-83.09 3.481-.101-.281-1.236-3.524.146.324 1.191ZM308.859 24.522l1.548-.936-.592-1.252-1.523 1.114.567 1.074Zm46.82-9.942 2.423-.831-.612-1.54-2.467 1.018.656 1.354Zm-77.002 61.449 2.499-1.444-.76-1.323-2.633 1.37.894 1.397Zm-6.759 66.689 2.136-3.175-1.3-1.566-2.149 3.183 1.313 1.558Zm-6.124-57.76 2.605-1.864-.858-1.509-2.724 1.815.977 1.558Zm180.274-29.812 3.491-.143-.322-1.722-3.564.224.395 1.64ZM301.602 177.583l2.36-2.874-1.147-.675-2.418 2.893 1.205.656Zm78.859-161.061 2.801-.68-.585-1.663-2.859.84.643 1.503Zm-50.849 3.911 1.937-.933-.617-1.378-1.947 1.116.627 1.195Zm-24.656 20.248 1.943-.53-.568-1.074-2.051.387.676 1.217Zm-8.127 11.309 2.14-.777-.62-1.129-2.248.634.728 1.273Zm114.613 138.146 2.096-.538-.758-.196-2.102.613.764.121Zm35.85-54.674 3.151-.319-.472-.921-3.186.375.507.865ZM401.036 28.797l3.05-.537-.546-1.687-3.112.664.608 1.56Zm-113.51 35.188 2.339-1.08-.688-1.209-2.465.964.814 1.325Zm-14.053 45.783 2.578-2.217-.966-1.37-2.668 2.185 1.056 1.402Zm11.521 29.389 2.496-2.572-1.063-1.133-2.571 2.566 1.138 1.139Zm41.09-110.458 1.804-.92-.611-1.311-1.805 1.114.612 1.117Zm124.638 61.254 3.426-.19-.346-1.424-3.486.263.406 1.351Zm-127.34-53.048 1.689-.936-.609-1.224-1.673 1.102.593 1.058ZM284.32 99.982l2.54-1.77-.849-1.214-2.668 1.709.977 1.275Zm131.434 81.873 2.266-.521-.734-.299-2.285.604.753.216Zm6.951-140.588 3.281-.364-.454-1.709-3.339.47.512 1.603Zm-101.64 3.443 1.571-.897-.61-1.17-1.547 1.077.586.99Zm28.946-21.422 2.275-.844-.619-1.465-2.309 1.043.653 1.267Zm20.466 169.111 2.181-1.051h-.9l-2.211.946.93.105Zm-21.337 1.526 2.414-1.55-.995-.011-2.469 1.461 1.05.1Zm7.614.553 2.338-1.361-.978.014-2.382 1.265 1.022.082Zm98.446-69.747 3.335-.222-.393-1.077-3.358.271.416 1.028Zm-81.469-98.693 2.661-.734-.616-1.572-2.704.92.659 1.386Zm2.852 164.454 2.086-.92-.862-.024-2.108.828.884.116ZM314.391 45.544l1.867-.483-.574-.998-1.928.327.635 1.154Zm79.403-6.558 2.894-.615-.57-1.584-2.96.763.636 1.436Zm26.954 134.213 2.428-.517-.69-.397-2.454.587.716.327Zm-38.391 15.082 1.984-.802-.811-.056-2.006.711.833.147Zm54.309-123.126 3.362-.292-.408-1.579-3.422.365.468 1.506ZM330.76 186.697l2.488-1.967-1.032-.182-2.561 1.907 1.105.242Zm9.485 5.026 2.469-1.743-1.022-.083-2.529 1.675 1.082.151Zm99.154-46.687 2.971-.381-.547-.787-3.005.438.581.73Zm-76.066 48.88 2.259-1.206-.945.011-2.303 1.109.989.086Zm-44.189-16.149 2.506-2.19-1.035-.357-2.592 2.138 1.121.409Zm48.939-141.922 2.496-.772-.619-1.464-2.539.957.662 1.28Zm-75.607 92.407 2.549-2.093-.95-1.01-2.648 2.05 1.049 1.053Zm133.755 35.861 2.605-.487-.662-.52-2.631.556.688.451ZM291.697 85.79l2.434-1.35-.769-1.141-2.543 1.26.878 1.231Zm15.002-28.327 2.047-.702-.618-1.041-2.147.57.718 1.173Zm80.791 128.428 1.893-.693-.781-.093-1.9.627.788.159Zm44.886-31.244 2.79-.444-.613-.64-2.817.515.64.569Zm-128.425 8.404 2.521-2.392-1.06-.677-2.582 2.379 1.121.69ZM344.996 31.94l2.131-.878-.63-1.37-2.152 1.069.651 1.179Zm-46.452 79.218 2.487-1.631-.848-.985-2.588 1.553.949 1.063Zm18.657-48.566 1.954-.625-.604-.963-2.053.495.703 1.093Zm-18.268 8.442 2.253-.99-.695-1.08-2.354.858.796 1.212Zm39.255-21.465 1.848-.877-.634-1.208-1.858 1.06.644 1.025Zm103.443 50.128 3.288-.298-.446-1.273-3.307.38.465 1.191Zm-27.525-48.659 3.13-.464-.508-1.57-3.187.57.565 1.464ZM395.4 173.448l1.907-.615-.754-.303-1.906.702.753.216Zm-3.736 7.513 1.762-.593-.761-.229-1.765.701.764.121Zm-87.342-87.473 2.331-1.233-.753-.975-2.456 1.117.878 1.09ZM427.925 75.12l3.211-.391-.482-1.444-3.256.49.527 1.345Zm5.689 34.882 3.104-.394-.512-1.126-3.148.493.556 1.027Zm-93.002-69.559 1.994-.898-.649-1.287-1.99 1.072.645 1.113Zm85.757 79.716 2.935-.466-.565-.986-2.968.556.598.896Zm-64.102-75.478 2.344-.817-.642-1.362-2.375.995.673 1.184Zm36.864 120.797 2.069-.61-.743-.398-2.072.717.746.291ZM310.122 76.95l2.156-.893-.678-.969-2.256.762.778 1.1Zm76.275-28.948 2.735-.674-.611-1.452-2.78.827.656 1.3Zm22.063 100.49 2.387-.581-.696-.604-2.411.683.72.502Zm-102.187-7.243 2.524-1.936-.958-.74-2.605 1.863 1.039.813Zm56.486 20.823 2.091-.941-.818-.264-2.121.837.848.368Zm12.866-1.225 1.89-.726-.751-.27-1.92.622.781.374ZM331.76 64.965l1.607-.867-.646-1.06-1.571 1.04.61.887Zm-6.133 1.5 1.873-.557-.597-.896-1.948.41.672 1.043Zm80.739-5.385 2.975-.542-.557-1.45-3.016.674.598 1.319Zm-91.178 38.314 2.249-1.11-.743-.875-2.354 1 .848.985ZM334.1 57.056l1.721-.885-.633-1.12-1.725 1.046.637.959Zm13.288 104.017 2.264-1.226-.862-.306-2.328 1.125.926.407Zm-27.166-79.324 2.071-.805-.664-.89-2.15.679.743 1.016Zm93.286 57.47 2.57-.571-.66-.715-2.602.661.692.625Zm-74.803 19.907 2.348-1.402-.894-.357-2.419 1.288.965.471Zm41.492-2.435 1.735-.664-.739-.419-1.738.772.742.311Zm-51.11-1.06 2.406-1.563-.916-.448-2.495 1.477 1.005.534Zm24.374-93.074 2.046-.842-.664-1.172-2.043 1.017.661.997Zm66.396 22.477 3.043-.462-.536-1.305-3.092.581.585 1.186Zm-6.919 10.34 2.868-.546-.578-1.174-2.916.665.626 1.055Zm-44.175 66.231 1.988-.823-.772-.275-2.031.727.815.371Zm11.352-104.103 2.562-.725-.635-1.349-2.599.89.672 1.184Zm-5.038 9.795 2.405-.75-.658-1.246-2.422.92.675 1.076Zm44.208 62.264 2.763-.516-.627-.859-2.787.618.651.757Zm-101.338 20.458 2.482-1.751-.946-.553-2.559 1.658 1.023.646Zm36.697 11.938 2.165-1.076-.834-.289-2.241.982.91.383Zm2.208-108.727 2.196-.83-.653-1.266-2.205 1.012.662 1.084Zm36.617 27.922 2.635-.664-.634-1.208-2.668.808.667 1.064Zm-84.278 38.15 2.421-1.483-.844-.812-2.518 1.385.941.91Zm11.579 5.918 2.347-1.348-.819-.687-2.451 1.238.923.797Zm78.553-54.25 2.807-.615-.598-1.319-2.848.746.639 1.187Zm-49.821-.159 1.905-.842-.662-1.085-1.902 1.017.659.91Zm53.187 86.083 2.223-.618-.712-.489-2.255.708.744.399Zm-73.594-71.376 1.965-.72-.65-.811-2.052.581.737.95Zm8.902 3.309 1.879-.631-.625-.773-1.959.505.705.9Zm32.166-12.465 2.248-.775-.661-1.139-2.265.945.678.969Zm36.222 28.698 2.695-.596-.631-1.034-2.723.72.659.91Zm-23.392 43.913 1.876-.665-.728-.513-1.884.793.736.385Zm-58.445-45.145 2.179-.996-.733-.776-2.259.87.813.902Zm63.3-13.22 2.47-.703-.663-1.084-2.49.839.683.948Zm3.035 41.982 2.183-.682-.711-.683-2.199.797.727.568Zm-22.911.113 1.695-.728-.709-.596-1.703.856.717.468Zm27.429-8.965 2.34-.656-.682-.807-2.369.779.711.684Zm-49.398-44.98 1.773-.83-.669-1.009-1.756.996.652.843Zm-2.723 7.779 1.64-.817-.654-.93-1.624.982.638.765Zm-9.573 20.757 2.076-.879-.726-.709-2.148.765.798.823Zm5.747 24.964 2.16-1.055-.785-.549-2.244.949.869.655Zm8.359 1.938 2.07-.945-.753-.498-2.137.811.82.632Zm-17.604-4.838 2.268-1.193-.805-.608-2.351 1.087.888.714Zm25.246 6.027 1.988-.824-.729-.46-2.047.702.788.582Zm30.954 5.481 2.017-.665-.73-.601-2.025.794.738.472Zm-15.624-15.909 1.836-.729-.711-.683-1.836.869.711.543Zm-15.236-15.712 1.664-.779-.68-.774-1.663.92.679.633Zm44.657 5.056 2.517-.626-.667-.923-2.538.762.688.787Zm-25.981 2.586 1.981-.749-.712-.77-1.977.869.708.65Zm-12.004 19.106 1.89-.727-.701-.443-1.936.597.747.573Zm-.607-42.64 1.937-.792-.683-.948-1.942.954.688.786ZM349.825 111.9l1.88-.685-.671-.62-1.939.563.73.742Zm-8.144-2.073 1.978-.782-.695-.658-2.045.647.762.793Zm36.242-1.524 2.131-.737-.689-.873-2.151.873.709.737Zm-19.933-6.977 1.804-.779-.694-.853-1.796.932.686.7Zm6.872-16.769 2.099-.787-.685-1.035-2.103.948.689.874Zm16.955 14.545 2.301-.72-.687-.98-2.312.868.698.832Zm61.553-34.535.635-.31-1.54.666-.614.315 1.519-.671Zm13.406-8.321.673-.334-1.522.584-.659.325 1.508-.575Zm13.802-7.634.714-.325-1.511.489-.68.321 1.477-.485Zm-65.437-73.528.116-.462-1.644.697-.091.445 1.619-.68Zm24.22 7.764.265-.448-1.637.568-.219.437 1.591-.557Zm54.977 59.02.727-.332-1.492.406-.701.316 1.466-.39Zm-34.429-55.11.353-.45-1.614.464-.314.427 1.575-.441Zm46.895 49.479.734-.32-1.46.316-.701.316 1.427-.312ZM467.361-11.15l.435-.43-1.569.366-.397.408 1.531-.343Zm41.513 42.532.743-.306-1.421.238-.709.303 1.387-.235Zm-25.257-41.558.483-.41-1.524.269-.451.406 1.492-.265Zm51.065 83.178.972-.222-1.279.238-.939.219 1.246-.235ZM521.03 27.198l.751-.294-1.394.168-.696.296 1.339-.17ZM498.563-9.688l.52-.379-1.485.19-.475.369 1.44-.18Zm10.252 2.904-1.411 1.097 1.86-1.45-.449.353Zm23.139 30.589.725-.279-1.334.096-.704.283 1.313-.1Zm-19.743-33.16.549-.362-1.425.117-.503.351 1.379-.106Zm12.92.295.544-.342-1.378.053-.511.338 1.345-.05Zm-5.402-10.27-1.338 1.157.513-.392 1.313-1.141-.488.376ZM.279-6.526l.489 1.652 2.669-1.004-.444-1.663L.28-6.526ZM54.73 283.122l1.367-.717 2.068-1.455-1.38.724-2.055 1.448Zm-3.93-9.076 1.376-.704 2.203-1.24-1.375.704-2.203 1.24Zm20.409-7.225 1.266-.653 2.227-1.398-1.261.633-2.232 1.418ZM47.06 54.247l.606 1.19 2.494-1.423-.568-1.214-2.531 1.447ZM78.383-8.405l.234 1.583 2.378-1.298-.2-1.586-2.412 1.301ZM93.17 257.209l1.148-.561 2.22-1.551-1.135.553-2.232 1.559Zm-2.895-6.866 1.155-.548 2.355-1.336-1.135.553-2.375 1.331ZM109.036 9.335l.231 1.408 2.208-1.456-.172-1.427-2.267 1.475Zm-23.881 73.53.588.937 2.359-1.638-.55-.961-2.397 1.662Zm29.969 163.255 1.02-.481 2.186-1.689-1.003.453-2.203 1.717Zm414.337 14.964 2.538-.622.015-.962-2.592.62.039.964Zm-92.695 70.339 2.546-.75.604-1.737-2.567.745-.583 1.742Zm-300.953-96.887.877-.374 2.14-1.818-.852.357-2.165 1.835Zm2.294-216.703.185 1.278 2.071-1.563-.134-1.31-2.122 1.595Zm-20.145 77.01.521.802 2.205-1.771-.458-.842-2.268 1.81Zm415.188 29.394 2.103-.049h-.564l-2.165.035.626.014Zm-14.388 71.174 2.451-.479-.244-.446-2.51.498.303.427Zm-361.734 25.623.751-.294 2.071-1.9-.715.237-2.107 1.957Zm6.078-198.89.142 1.182 1.923-1.63-.099-1.226-1.966 1.674Zm361.411 129.495 2.271-.26-.431-.153-2.358.262.518.151Zm-90.726 137.447 2.603-.856.449-1.393-2.649.867-.403 1.382Zm68.515-86.758 2.516-.572-.164-.515-2.591.566.239.521ZM146.141 98.376l.42.725 2.07-1.845-.377-.77-2.113 1.89Zm371.213 21.458 2.179-.096-.551-.007-2.259.111.631-.008Zm-30.802 91.318 2.576-.646-.062-.632-2.647.673.133.605ZM186.265 22.087l.094 1.106 1.783-1.684-.043-1.137-1.834 1.715Zm319.289 129.324 2.377-.344-.398-.156-2.439.33.46.17Zm-328.288 55.463.627-.181 1.983-1.985-.576.149-2.034 2.017Zm263.942 53.209 2.648-.868.309-1.111-2.703.866-.254 1.113Zm28.238-36.807 2.62-.744.042-.749-2.674.742.012.751Zm29.384-108.003 2.28-.16-.535.018-2.347.166.602-.024Zm-44.367 123.595 2.647-.813.166-.916-2.7.812-.113.917ZM207.275 19.337l.054 1.042 1.647-1.704.001-1.095-1.702 1.757Zm-35.591 76.71.329.694 1.952-1.895-.287-.738-1.994 1.94Zm314.522 55.59 2.457-.412-.347-.188-2.524.418.414.182ZM375.268-26.594l-.267.98.707-2.191.253-.918-.693 2.13Z"/><path d="m225.922 15.21.002.987 1.527-1.7.033-1.043-1.562 1.756Zm-29.253 176.846.495-.081 1.897-2.037-.453.037-1.939 2.081ZM338.926-24.778l-.131.859.916-1.97.105-.789-.89 1.9Zm-44.495 5.942-.007.692 1.067-1.675-.029-.635-1.031 1.618Zm183.974 129.328 2.374-.236-.507.035-2.441.243.574-.042ZM243.248 9.23l-.022.948 1.407-1.694.056-1.006-1.441 1.751Zm14.881-5.718-.033.903 1.281-1.668.089-.956-1.337 1.721Zm13.757-6.636-.077.86 1.189-1.646.113-.917-1.225 1.703Zm11.512-5.492-.08.827 1.085-1.616.123-.871-1.128 1.66Zm-88.74 98.969.246.675 1.828-1.923-.212-.732-1.862 1.98Zm271.713 62.027 2.535-.514-.276-.215-2.602.52.343.209ZM365.733-8.278l-.227.848.777-2.164.213-.786-.763 2.102ZM329.231-9.98l-.1.77.961-1.927.073-.699-.934 1.857ZM214.699 177.217l.398.015 1.786-2.073-.355-.06-1.829 2.118Zm-.589-93.137.177.648 1.687-1.923-.13-.713-1.734 1.988ZM319.945 3.363l-.077.665.988-1.855.042-.608-.953 1.798Zm36.87 3.694-.203.745.85-2.104.168-.688-.815 2.047Zm86.7 147.184 2.6-.607-.18-.258-2.671.634.251.231ZM311.463 14.754l-.05.596 1.02-1.805.015-.539-.985 1.748Zm-78.052 59.548.111.654 1.566-1.917-.076-.712-1.601 1.975Zm-1.004 86.972.305.091 1.691-2.084-.249-.144-1.747 2.137Zm69.186-135.318-.054.617 1.039-1.746.089-.673-1.074 1.802Zm45.709-3.05-.159.646.902-2.048.124-.59-.867 1.992Zm-97.709 42.551.069.645 1.446-1.913-.022-.71-1.493 1.978Zm40.649-29.31-.034.622 1.128-1.802.068-.678-1.162 1.858Zm-11.748 9.081-.005.639 1.224-1.845.048-.682-1.267 1.888ZM263.86 56.737l.028.636 1.329-1.875.019-.7-1.376 1.94Zm156.57 100.039 2.656-.713-.075-.289-2.715.733.134.269ZM338.471 36.44l-.12.568.922-1.99.105-.507-.907 1.928Zm-89.962 109.422.224.16 1.57-2.08-.168-.212-1.626 2.132Zm81.229-96.604-.101.486.949-1.918.086-.425-.934 1.857Zm66.054 111.15 2.693-.824.055-.335-2.764.852.016.307Zm-131.958-30.353.155.22 1.459-2.061-.101-.273-1.513 2.114Zm34.333 53.3.139-.228 1.386-2.122-.113.158-1.412 2.192Zm-7.694 2.833 2.606-1.3.655-.587-2.627 1.295-.634.592Zm30.621-124.785-.044.38.976-1.847.091-.445-1.023 1.912Zm37.461 7.082-.191.455.861-2.058.169-.406-.839 2.01Zm-46.762 5.281-.01.377 1.077-1.91.045-.434-1.112 1.967Zm-34.356 41.562.08.268 1.366-2.039-.053-.338-1.393 2.109Zm92.692 49.832 2.721-.948.185-.381-2.767.96-.139.369Zm-80.184-64.224.057.317 1.25-2.002-.003-.369-1.304 2.054Zm59.903-18.607-.152.377.901-1.994.13-.329-.879 1.946Zm-41.501 80.982.09-.109 1.273-2.104-.035.057-1.328 2.156Zm-7.606-75.165.007.348 1.174-1.953.02-.418-1.201 2.023Zm17.647 89.372 2.657-1.191.487-.517-2.691 1.194-.453.514Zm25.558-6.522 2.709-1.081.327-.435-2.742 1.085-.294.431Zm-2.095-74.281-.033.144.908-1.928.08-.209-.955 1.993Zm-24.59 49.005.051-.031 1.176-2.062-.003-.033-1.224 2.126Zm17.677-34.945-.016.115 1.009-1.991.058-.16-1.051 2.036Zm-8.761 17.441.024.038 1.084-2.039.024-.103-1.132 2.104Z"/></g></svg>