<svg width="1380" height="589" viewBox="0 0 1380 589" fill="none" xmlns="http://www.w3.org/2000/svg"><g filter="url(#a)" shape-rendering="crispEdges"><path d="M0 40C0 17.91 17.909 0 40 0h1300c22.09 0 40 17.909 40 40v509c0 22.091-17.91 40-40 40H40c-22.091 0-40-17.909-40-40V40Z" fill="url(#b)" fill-opacity=".5"/><path d="M.5 40C.5 18.185 18.185.5 40 .5h1300c21.82 0 39.5 17.685 39.5 39.5v509c0 21.815-17.68 39.5-39.5 39.5H40C18.185 588.5.5 570.815.5 549V40Z" stroke="url(#c)" stroke-opacity=".7"/></g><g opacity=".6" filter="url(#d)"><ellipse cx="690" cy="-145" rx="585" ry="85" fill="#1683E2"/></g><g opacity=".6" filter="url(#e)"><ellipse cx="690" cy="835" rx="585" ry="85" fill="#1683E2"/></g><defs><filter id="a" x="-234" y="-210" width="1848" height="1057" filterUnits="userSpaceOnUse" color-interpolation-filters="sRGB"><feFlood flood-opacity="0" result="BackgroundImageFix"/><feGaussianBlur in="BackgroundImageFix" stdDeviation="57"/><feComposite in2="SourceAlpha" operator="in" result="effect1_backgroundBlur_432_1008"/><feColorMatrix in="SourceAlpha" values="0 0 0 0 0 0 0 0 0 0 0 0 0 0 0 0 0 0 127 0" result="hardAlpha"/><feOffset dy="24"/><feGaussianBlur stdDeviation="117"/><feComposite in2="hardAlpha" operator="out"/><feColorMatrix values="0 0 0 0 0 0 0 0 0 0 0 0 0 0 0 0 0 0 0.2 0"/><feBlend in2="effect1_backgroundBlur_432_1008" result="effect2_dropShadow_432_1008"/><feBlend in="SourceGraphic" in2="effect2_dropShadow_432_1008" result="shape"/></filter><filter id="d" x="-229" y="-564" width="1838" height="838" filterUnits="userSpaceOnUse" color-interpolation-filters="sRGB"><feFlood flood-opacity="0" result="BackgroundImageFix"/><feBlend in="SourceGraphic" in2="BackgroundImageFix" result="shape"/><feGaussianBlur stdDeviation="167" result="effect1_foregroundBlur_432_1008"/></filter><filter id="e" x="-229" y="416" width="1838" height="838" filterUnits="userSpaceOnUse" color-interpolation-filters="sRGB"><feFlood flood-opacity="0" result="BackgroundImageFix"/><feBlend in="SourceGraphic" in2="BackgroundImageFix" result="shape"/><feGaussianBlur stdDeviation="167" result="effect1_foregroundBlur_432_1008"/></filter><linearGradient id="b" x1="690" y1="0" x2="690" y2="589" gradientUnits="userSpaceOnUse"><stop stop-color="#10111D"/><stop offset="1" stop-color="#10111D"/></linearGradient><linearGradient id="c" x1="921" y1="9.225" x2="982.327" y2="270.645" gradientUnits="userSpaceOnUse"><stop stop-color="#202230"/><stop offset="1" stop-color="#202129" stop-opacity="0"/></linearGradient></defs></svg>