<svg width="62" height="84" viewBox="0 0 62 84" fill="none" xmlns="http://www.w3.org/2000/svg"><path d="M8.827 0C3.954 0 0 3.965 0 8.85v66.3C0 80.035 3.954 84 8.827 84h44.346C58.046 84 62 80.035 62 75.15V23.52L38.54 0H8.828Z" fill="#292A3C"/><path d="m41.833 52.833-2.166-2.166m-19.5-9.209c0-5.683 4.607-10.291 10.291-10.291S40.75 35.775 40.75 41.458c0 5.684-4.608 10.292-10.292 10.292s-10.291-4.608-10.291-10.292Z" stroke="#79768B" stroke-width="2" strokeLinecap="round" strokeLinejoin="round"/><path d="M38.546 0v14.957c0 4.74 3.832 8.587 8.554 8.587H62L38.546 0Z" fill="#202130"/></svg>