<svg width="20" height="20" viewBox="0 0 20 20" fill="none" xmlns="http://www.w3.org/2000/svg"><g clip-path="url(#a)"><path fill-rule="evenodd" clip-rule="evenodd" d="M16.48 3.692a1.25 1.25 0 0 1 1.72 1.355L16.31 16.51c-.184 1.106-1.397 1.74-2.412 1.189a48.624 48.624 0 0 1-3.241-1.912c-.567-.37-2.303-1.558-2.09-2.403.184-.723 3.1-3.438 4.767-5.052.654-.634.356-1-.416-.416-1.92 1.448-4.999 3.65-6.017 4.27-.898.547-1.367.64-1.927.547-1.021-.17-1.969-.433-2.742-.754-1.045-.433-.994-1.87-.001-2.288l14.25-6Z" fill="#fff"/></g><defs><clipPath id="a"><path fill="#fff" d="M0 0h20v20H0z"/></clipPath></defs></svg>