<svg width="268" height="197" viewBox="0 0 268 197" fill="none" xmlns="http://www.w3.org/2000/svg"><g filter="url(#a)"><mask id="c" fill="#fff"><path fill-rule="evenodd" clip-rule="evenodd" d="M50 31c-5.523 0-10 4.477-10 10v94c0 5.523 4.477 10 10 10h79l4.126 7.427a1 1 0 0 0 1.748 0L139 145h79c5.523 0 10-4.477 10-10V41c0-5.523-4.477-10-10-10H50Z"/></mask><path fill-rule="evenodd" clip-rule="evenodd" d="M50 31c-5.523 0-10 4.477-10 10v94c0 5.523 4.477 10 10 10h79l4.126 7.427a1 1 0 0 0 1.748 0L139 145h79c5.523 0 10-4.477 10-10V41c0-5.523-4.477-10-10-10H50Z" fill="#171828"/><path d="m129 145 .874-.486-.286-.514H129v1Zm4.126 7.427-.874.485.874-.485Zm1.748 0 .874.485-.874-.485ZM139 145v-1h-.588l-.286.514.874.486ZM41 41a9 9 0 0 1 9-9v-2c-6.075 0-11 4.925-11 11h2Zm0 94V41h-2v94h2Zm9 9a9 9 0 0 1-9-9h-2c0 6.075 4.925 11 11 11v-2Zm79 0H50v2h79v-2Zm5 7.941-4.126-7.427-1.748.972 4.126 7.426 1.748-.971Zm0 0-1.748.971c.762 1.372 2.734 1.372 3.496 0l-1.748-.971Zm4.126-7.427L134 151.941l1.748.971 4.126-7.426-1.748-.972ZM218 144h-79v2h79v-2Zm9-9a9 9 0 0 1-9 9v2c6.075 0 11-4.925 11-11h-2Zm0-94v94h2V41h-2Zm-9-9a9 9 0 0 1 9 9h2c0-6.075-4.925-11-11-11v2ZM50 32h168v-2H50v2Z" fill="url(#b)" fill-opacity=".7" mask="url(#c)"/></g><defs><linearGradient id="b" x1="260.68" y1="34.453" x2="249.821" y2="204.087" gradientUnits="userSpaceOnUse"><stop stop-color="#202230"/><stop offset="1" stop-color="#202129" stop-opacity="0"/></linearGradient><filter id="a" x="0" y="-5" width="268" height="201.941" filterUnits="userSpaceOnUse" color-interpolation-filters="sRGB"><feFlood flood-opacity="0" result="BackgroundImageFix"/><feColorMatrix in="SourceAlpha" values="0 0 0 0 0 0 0 0 0 0 0 0 0 0 0 0 0 0 127 0" result="hardAlpha"/><feOffset dy="4"/><feGaussianBlur stdDeviation="20"/><feComposite in2="hardAlpha" operator="out"/><feColorMatrix values="0 0 0 0 0 0 0 0 0 0 0 0 0 0 0 0 0 0 0.15 0"/><feBlend in2="BackgroundImageFix" result="effect1_dropShadow_2030_3165"/><feBlend in="SourceGraphic" in2="effect1_dropShadow_2030_3165" result="shape"/></filter></defs></svg>