<svg width="1380" height="867" viewBox="0 0 1380 867" fill="none" preserveAspectRatio="none" xmlns="http://www.w3.org/2000/svg"><path d="M0 77c0-22.091 17.909-40 40-40h564.674c14.866 0 28.484 8.685 34.903 22.093 20.346 42.495 81.332 42.853 101.139.104A38.295 38.295 0 0 1 775.463 37H1340c22.09 0 40 17.909 40 40v750c0 22.091-17.91 40-40 40H40c-22.091 0-40-17.909-40-40V77Z" fill="url(#a)" fill-opacity=".5"/><path d="M.5 77C.5 55.185 18.185 37.5 40 37.5h564.674c14.671 0 28.115 8.572 34.452 21.81 20.522 42.863 82.053 43.243 102.043.097A37.797 37.797 0 0 1 775.463 37.5H1340c21.82 0 39.5 17.685 39.5 39.5v750c0 21.815-17.68 39.5-39.5 39.5H40C18.185 866.5.5 848.815.5 827V77Z" stroke="url(#b)" stroke-opacity=".7"/><g filter="url(#c)"><circle cx="689" cy="37" r="37" fill="url(#d)"/><circle cx="689" cy="37" r="36.5" stroke="url(#e)"/></g><path d="M689 45.75v-17.5m0 17.5 7.5-7.5m-7.5 7.5-7.5-7.5" stroke="#fff" stroke-linecap="round" stroke-linejoin="round"/><defs><linearGradient id="a" x1="690" y1="37" x2="690" y2="867" gradientUnits="userSpaceOnUse"><stop stop-color="#10111D"/><stop offset=".886" stop-color="#030512" stop-opacity="0"/></linearGradient><linearGradient id="b" x1="921" y1="50" x2="1036.82" y2="400.368" gradientUnits="userSpaceOnUse"><stop stop-color="#202230"/><stop offset="1" stop-color="#202129" stop-opacity="0"/></linearGradient><linearGradient id="d" x1="689" y1="0" x2="689" y2="74" gradientUnits="userSpaceOnUse"><stop stop-color="#10111D"/><stop offset="1" stop-color="#030512" stop-opacity="0"/></linearGradient><linearGradient id="e" x1="691" y1="-78" x2="692.5" y2="143.5" gradientUnits="userSpaceOnUse"><stop stop-color="#1683E2"/><stop offset=".619" stop-color="#1683E2" stop-opacity="0"/></linearGradient><filter id="c" x="648" y="-4" width="82" height="82" filterUnits="userSpaceOnUse" color-interpolation-filters="sRGB"><feFlood flood-opacity="0" result="BackgroundImageFix"/><feGaussianBlur in="BackgroundImageFix" stdDeviation="2"/><feComposite in2="SourceAlpha" operator="in" result="effect1_backgroundBlur_432_1008"/><feBlend in="SourceGraphic" in2="effect1_backgroundBlur_432_1008" result="shape"/></filter></defs></svg>