<?xml version="1.0" encoding="UTF-8"?>
<!DOCTYPE svg PUBLIC "-//W3C//DTD SVG 1.0//EN" "http://www.w3.org/TR/2001/REC-SVG-20010904/DTD/svg10.dtd">
<!-- Creator: CorelDRAW 2017 -->
<svg xmlns="http://www.w3.org/2000/svg" xml:space="preserve" width="512px" height="512px" version="1.0" style="shape-rendering:geometricPrecision; text-rendering:geometricPrecision; image-rendering:optimizeQuality; fillRule:evenodd; clipRule:evenodd"
viewBox="0 0 512 512"
 xmlns:xlink="http://www.w3.org/1999/xlink">
 <defs>
  <style type="text/css">
   <![CDATA[
    .fil0 {fill:none}
    .fil1 {fill:url(#id0)}
   ]]>
  </style>
  <linearGradient id="id0" gradientUnits="userSpaceOnUse" x1="216.58" y1="275.76" x2="511.68" y2="275.74">
   <stop offset="0" style="stopOpacity:1; stop-color:#2499FF"/>
   <stop offset="1" style="stopOpacity:1; stop-color:#7124FF"/>
  </linearGradient>
 </defs>
 <g id="Слой_x0020_1">
  <metadata id="CorelCorpID_0Corel-Layer"/>
  <path class="fil0" d="M0 0l512 0 0 512 -512 0 0 -512z"/>
  <path class="fil1" d="M178.83 199.3c2.8,7.7 4.65,24.14 5.83,33.05 4.47,34.04 6.77,69.62 12.63,103.12 3.72,21.3 8.99,43.95 21.19,56.15 6.01,6.01 17.05,11.94 29.45,7.63 9.14,-3.19 14.78,-10.73 18.87,-19.71 13.28,-29.13 16.88,-98.48 19.36,-134.78 3.24,-47.26 5.5,-94.45 12.08,-141.41 4.34,19.8 7.5,163.97 8.11,182.89 1.33,41.46 3.51,139.75 20.97,170.17 5.32,9.28 14.44,19.62 30.33,17.47 13.42,-1.82 21.54,-11.83 26.5,-21.51 17.92,-34.96 21.69,-125.2 24.41,-167.1 1.39,-21.29 4.2,-68.14 8.06,-87.25 1.52,3.3 3.47,14.48 4.69,18.88 4.36,15.69 12.3,35.17 25.29,45.26 10.35,8.05 18.25,12.34 32.34,14.88 5.89,1.06 15.8,2.15 21.38,0.23 11.48,-3.97 16.51,-18.95 5.7,-29.24 -5.22,-4.97 -10.99,-3.88 -19,-4.87 -41.32,-5.13 -27.75,-66.53 -51.16,-89.47 -7.44,-7.29 -23.38,-12.76 -35.39,-4.61 -8.98,6.1 -13.18,16.96 -16.38,30.5 -8.78,37.07 -11.65,126.39 -15.7,170.61 -1.18,12.83 -7.16,72.23 -13.36,79.97 -5.99,-10.98 -10.31,-76.77 -11.14,-92.51 -1.74,-33.04 -2.59,-66.23 -3.48,-99.39 -1.13,-41.58 -1.41,-158.48 -18.81,-187.13 -7.94,-13.05 -22.59,-17.1 -35.24,-9.42 -9.78,5.95 -15.02,19.18 -18.59,33.17 -7.08,27.7 -9.5,61.85 -11.75,91.41 -2.38,31.44 -8.85,159.62 -18.12,187.93 -9.1,-18.51 -15.43,-126.67 -24.35,-162.47 -4.28,-17.19 -10.19,-33.02 -23.99,-38.68 -16.83,-6.9 -32.03,3.88 -39.13,19.91 -15.08,34.05 -15.27,106.52 -28.28,140.99 -5.07,13.43 -8.66,15.71 -16.16,0.77 -2.35,-4.69 -4.1,-9.02 -6.28,-13.89 -12.68,-28.37 -27.79,-51.01 -66.54,-56.26 -14.05,-1.91 -25.58,-1.88 -31.05,8.37 -6.15,11.54 2.05,22.97 12.04,24.97 5.72,1.15 12.51,0.45 19.03,1.86 16.29,3.51 24.71,13.88 31.56,29.34 4.17,9.4 8.19,19.52 13.15,27.76 4.83,8.01 11.87,15.78 21.33,19.74 23.03,9.64 42.5,-0.56 52.58,-22.15 12.18,-26.06 16.52,-70.7 20.87,-101.49 1.47,-10.33 3.18,-24.13 6.15,-33.69z"/>
 </g>
</svg>
